<svg xmlns:xlink="http://www.w3.org/1999/xlink" width="22" height="23" viewBox="0 0 22 23" fill="none" xmlns="http://www.w3.org/2000/svg">
      <path opacity="0.4" d="M6.67065 6.4847C6.67065 4.27199 8.53019 2.47095 10.8157 2.47095H15.3587C17.6387 2.47095 19.4935 4.26748 19.4935 6.47567V16.5109C19.4935 18.7246 17.6349 20.5265 15.3494 20.5265H10.8064C8.52646 20.5265 6.67065 18.7291 6.67065 16.52V15.6714V6.4847Z" fill="#3B82F6"></path>
      <path d="M14.5621 11.0056L11.8827 8.37941C11.6058 8.10858 11.1602 8.10858 10.8841 8.38122C10.6091 8.65386 10.61 9.09351 10.886 9.36434L12.3531 10.8025H3.04688C2.65717 10.8025 2.34082 11.1139 2.34082 11.4985C2.34082 11.8822 2.65717 12.1927 3.04688 12.1927H12.3531L10.886 13.6318C10.61 13.9026 10.6091 14.3423 10.8841 14.6149C11.0226 14.7512 11.2033 14.8198 11.3848 14.8198C11.5645 14.8198 11.7452 14.7512 11.8827 14.6167L14.5621 11.9905C14.695 11.8596 14.7702 11.6827 14.7702 11.4985C14.7702 11.3134 14.695 11.1365 14.5621 11.0056Z" fill="#3B82F6"></path>
    </svg>