<svg xmlns:xlink="http://www.w3.org/1999/xlink" width="22" height="22" viewBox="0 0 22 22" fill="none" xmlns="http://www.w3.org/2000/svg">
            <path opacity="0.4" d="M19.3827 8.78099H18.2966V7.71911C18.2966 7.26576 17.933 6.89612 17.485 6.89612C17.0379 6.89612 16.6734 7.26576 16.6734 7.71911V8.78099H15.5892C15.1412 8.78099 14.7776 9.15063 14.7776 9.60398C14.7776 10.0573 15.1412 10.427 15.5892 10.427H16.6734V11.4898C16.6734 11.9431 17.0379 12.3128 17.485 12.3128C17.933 12.3128 18.2966 11.9431 18.2966 11.4898V10.427H19.3827C19.8297 10.427 20.1943 10.0573 20.1943 9.60398C20.1943 9.15063 19.8297 8.78099 19.3827 8.78099" fill="#FFFFFF"></path>
            <path d="M8.90975 13.681C5.25731 13.681 2.13892 14.265 2.13892 16.598C2.13892 18.9301 5.23834 19.5351 8.90975 19.5351C12.5613 19.5351 15.6806 18.9511 15.6806 16.6181C15.6806 14.2851 12.5812 13.681 8.90975 13.681" fill="#FFFFFF"></path>
            <path opacity="0.4" d="M8.90984 11.459C11.3966 11.459 13.39 9.43996 13.39 6.92114C13.39 4.40232 11.3966 2.38232 8.90984 2.38232C6.42308 2.38232 4.42969 4.40232 4.42969 6.92114C4.42969 9.43996 6.42308 11.459 8.90984 11.459" fill="#FFFFFF"></path>
        </svg>