<svg xmlns:xlink="http://www.w3.org/1999/xlink" width="17" height="17" viewBox="0 0 17 17" fill="none" xmlns="http://www.w3.org/2000/svg">
                                    <path class="fill-current transition duration-300 ease-linear dark:text-blue-950 text-blue-700 group-hover:text-white" d="M8.77638 2.139C10.8663 2.139 11.1137 2.14816 11.9356 2.18483C12.6995 2.21844 13.1119 2.34676 13.3869 2.4537C13.7505 2.59425 14.0133 2.76535 14.2852 3.03728C14.5602 3.31226 14.7282 3.57197 14.8688 3.93555C14.9757 4.21054 15.1041 4.62607 15.1377 5.38686C15.1743 6.21181 15.1835 6.45929 15.1835 8.54611C15.1835 10.636 15.1743 10.8835 15.1377 11.7054C15.1041 12.4692 14.9757 12.8817 14.8688 13.1567C14.7282 13.5203 14.5571 13.783 14.2852 14.0549C14.0102 14.3299 13.7505 14.498 13.3869 14.6385C13.1119 14.7455 12.6964 14.8738 11.9356 14.9074C11.1107 14.9441 10.8632 14.9532 8.77638 14.9532C6.6865 14.9532 6.43902 14.9441 5.61712 14.9074C4.85328 14.8738 4.4408 14.7455 4.16582 14.6385C3.80223 14.498 3.53947 14.3269 3.26754 14.0549C2.99255 13.78 2.82451 13.5203 2.68396 13.1567C2.57702 12.8817 2.4487 12.4662 2.41509 11.7054C2.37842 10.8804 2.36926 10.6329 2.36926 8.54611C2.36926 6.45624 2.37842 6.20875 2.41509 5.38686C2.4487 4.62301 2.57702 4.21054 2.68396 3.93555C2.82451 3.57197 2.99561 3.3092 3.26754 3.03728C3.54252 2.76229 3.80223 2.59425 4.16582 2.4537C4.4408 2.34676 4.85633 2.21844 5.61712 2.18483C6.43902 2.14816 6.6865 2.139 8.77638 2.139ZM8.77638 0.730469C6.65289 0.730469 6.38707 0.739635 5.55296 0.776299C4.7219 0.812964 4.15054 0.9474 3.65557 1.13989C3.13921 1.34154 2.70229 1.60736 2.26843 2.04428C1.83151 2.47814 1.56569 2.91506 1.36404 3.42836C1.17155 3.92639 1.03712 4.49469 1.00045 5.32575C0.963786 6.16292 0.95462 6.42874 0.95462 8.55222C0.95462 10.6757 0.963786 10.9415 1.00045 11.7756C1.03712 12.6067 1.17155 13.1781 1.36404 13.673C1.56569 14.1894 1.83151 14.6263 2.26843 15.0602C2.70229 15.494 3.13921 15.7629 3.65252 15.9615C4.15054 16.154 4.71884 16.2884 5.5499 16.3251C6.38402 16.3618 6.64984 16.3709 8.77332 16.3709C10.8968 16.3709 11.1626 16.3618 11.9967 16.3251C12.8278 16.2884 13.3992 16.154 13.8941 15.9615C14.4074 15.7629 14.8443 15.494 15.2782 15.0602C15.7121 14.6263 15.9809 14.1894 16.1795 13.6761C16.372 13.1781 16.5065 12.6098 16.5431 11.7787C16.5798 10.9446 16.589 10.6788 16.589 8.55528C16.589 6.43179 16.5798 6.16598 16.5431 5.33186C16.5065 4.5008 16.372 3.92944 16.1795 3.43447C15.9871 2.91506 15.7212 2.47814 15.2843 2.04428C14.8505 1.61042 14.4135 1.34154 13.9002 1.14294C13.4022 0.950456 12.8339 0.816019 12.0028 0.779355C11.1657 0.739635 10.8999 0.730469 8.77638 0.730469Z" fill="#3B82F6"></path>
                                    <path class="fill-current transition duration-300 ease-linear dark:text-blue-950 text-blue-700 group-hover:text-white" d="M8.77637 4.53441C6.55817 4.53441 4.75856 6.33402 4.75856 8.55222C4.75856 10.7704 6.55817 12.57 8.77637 12.57C10.9946 12.57 12.7942 10.7704 12.7942 8.55222C12.7942 6.33402 10.9946 4.53441 8.77637 4.53441ZM8.77637 11.1585C7.33729 11.1585 6.17014 9.9913 6.17014 8.55222C6.17014 7.11314 7.33729 5.94599 8.77637 5.94599C10.2155 5.94599 11.3826 7.11314 11.3826 8.55222C11.3826 9.9913 10.2155 11.1585 8.77637 11.1585Z" fill="#3B82F6"></path>
                                    <path class="fill-current transition duration-300 ease-linear dark:text-blue-950 text-blue-700 group-hover:text-white" d="M13.8911 4.37544C13.8911 4.89486 13.4694 5.31345 12.9531 5.31345C12.4337 5.31345 12.0151 4.8918 12.0151 4.37544C12.0151 3.85603 12.4367 3.43744 12.9531 3.43744C13.4694 3.43744 13.8911 3.85909 13.8911 4.37544Z" fill="#3B82F6"></path>
                                </svg>