<svg xmlns:xlink="http://www.w3.org/1999/xlink" class="w-4 h-4" fill="none" viewBox="0 0 10 12" xmlns="http://www.w3.org/2000/svg" width="16"  height="16" >
        <path stroke="#3B82F6" d="M2.51974 10.651L2.51972 10.651L2.51551 10.654C2.00961 11.009 1.31115 10.6877 1.26272 10.0631C1.20578 9.32899 1.12994 7.98392 1.12995 6.02793V5.99265V5.99264C1.12994 5.21616 1.13036 4.53967 1.18575 3.97518C1.24191 3.40288 1.35849 2.89041 1.62915 2.47298C2.19514 1.60008 3.28533 1.34809 4.99817 1.34104C6.71301 1.33397 7.80474 1.58477 8.37131 2.46321C8.64158 2.88225 8.75804 3.39711 8.81416 3.97134C8.86955 4.538 8.86997 5.21625 8.86995 5.993V6.02794C8.86995 7.98392 8.7941 9.32899 8.73716 10.0631C8.68873 10.6877 7.99029 11.009 7.48439 10.654L7.48441 10.654L7.48016 10.651C7.03638 10.3475 6.6257 10.0207 6.30567 9.76593L6.29989 9.76133C6.15447 9.64555 6.02249 9.54047 5.91897 9.46373C5.7247 9.31973 5.56248 9.2214 5.41218 9.16087C5.24859 9.095 5.11648 9.08089 4.99995 9.08089C4.88342 9.08089 4.75131 9.095 4.58772 9.16088C4.43742 9.2214 4.2752 9.31973 4.08093 9.46373C3.97737 9.54049 3.8453 9.64565 3.69982 9.76147L3.69423 9.76592C3.3742 10.0207 2.96352 10.3475 2.51974 10.651Z" stroke-width="0.86px" stroke-linecap="round" stroke-linejoin="round" fill="none"></path>
        <path stroke="#3B82F6" d="M5.86 3.06262C6.29 3.06262 6.505 3.06099 6.8275 3.38265C7.15 3.70432 7.15 4.78095 7.15 5.21094" stroke-width="0.86px" stroke-linecap="round" stroke-linejoin="round" fill="none"></path>
    </svg>