<svg xmlns:xlink="http://www.w3.org/1999/xlink" class="w-9 h-9 text-white" viewBox="0 0 34 16" fill="none" xmlns="http://www.w3.org/2000/svg" width="36"  height="36" >
    <path fill-rule="evenodd" clip-rule="evenodd" d="M18.361 12.4776C18.2904 12.4776 18.2234 12.4451 18.1786 12.389C18.1336 12.333 18.1154 12.2592 18.1288 12.1878L19.1167 6.95663C19.2107 6.45914 19.1875 6.10206 19.0515 5.95118C18.9683 5.85895 18.7182 5.70426 17.9788 5.70426H16.1891L14.947 12.2806C14.9254 12.395 14.828 12.4776 14.7148 12.4776H12.2315C12.1608 12.4776 12.0939 12.4451 12.0489 12.389C12.004 12.333 11.9858 12.2591 11.9993 12.1878L14.2326 0.36484C14.2542 0.250546 14.3515 0.167969 14.4647 0.167969H16.9481C17.0187 0.167969 17.0857 0.200415 17.1306 0.256468C17.1755 0.3126 17.1938 0.386336 17.1803 0.45772L16.6413 3.31128H18.5667C20.0334 3.31128 21.028 3.57735 21.6073 4.12473C22.1978 4.68315 22.3821 5.57601 22.155 6.77882L21.116 12.2806C21.0944 12.395 20.9971 12.4776 20.8838 12.4776H18.361ZM6.19565 10.1252C7.15917 10.1252 7.87847 9.94471 8.33359 9.58893C8.78384 9.23679 9.09482 8.62671 9.25781 7.7757C9.40979 6.98026 9.35189 6.42485 9.08579 6.12511C8.81371 5.81898 8.22546 5.66372 7.33741 5.66372H5.79763L4.94401 10.1252H6.19565ZM1.15944 15.6209C1.08796 15.6209 1.02008 15.5885 0.974641 15.5323C0.929118 15.4763 0.910673 15.4025 0.924328 15.3312L3.18661 3.50818C3.20849 3.39388 3.30712 3.3113 3.42179 3.3113H8.29757C9.82993 3.3113 10.9705 3.73393 11.6874 4.56757C12.4081 5.4056 12.6307 6.57702 12.3489 8.04923C12.2342 8.64902 12.0369 9.20605 11.7626 9.70476C11.488 10.204 11.125 10.666 10.6836 11.0781C10.1553 11.5804 9.55729 11.9446 8.90786 12.1589C8.26874 12.3704 7.44794 12.4776 6.4683 12.4776H4.494L3.93018 15.424C3.9083 15.5383 3.80975 15.6209 3.69508 15.6209H1.15944ZM28.9467 9.58893C28.4741 9.94471 27.7272 10.1252 26.7267 10.1252H25.427L26.3134 5.66372H27.9123C28.8344 5.66372 29.4452 5.81898 29.7278 6.12511C30.0041 6.42485 30.0643 6.98026 29.9065 7.7757C29.7371 8.62679 29.4142 9.23687 28.9467 9.58893ZM21.3055 15.5323C21.3526 15.5885 21.4231 15.6209 21.4973 15.6209H24.1302C24.2494 15.6209 24.3517 15.5383 24.3745 15.424L24.9597 12.4776H27.0098C28.0271 12.4776 28.8794 12.3704 29.543 12.1589C30.2173 11.9446 30.8383 11.5804 31.3869 11.0781C31.8452 10.666 32.2221 10.204 32.5073 9.70476C32.7921 9.20605 32.9969 8.64902 33.1161 8.04923C33.4087 6.57694 33.1777 5.40552 32.4293 4.56757C31.6848 3.73393 30.5005 3.3113 28.9093 3.3113H23.8465C23.7274 3.3113 23.625 3.39388 23.6022 3.50818L21.2531 15.3312C21.239 15.4025 21.2582 15.4763 21.3055 15.5323Z" fill="#FFFFFF"></path>
</svg>