<svg xmlns:xlink="http://www.w3.org/1999/xlink" class="" width="22" height="22" viewBox="0 0 22 22" fill="none" xmlns="http://www.w3.org/2000/svg">
    <path d="M1 11C1 13.2418 1.12143 14.975 1.42108 16.3234C1.71821 17.6603 2.17712 18.5568 2.81017 19.1898C3.44322 19.8229 4.33967 20.2818 5.67664 20.5789C7.02497 20.8786 8.7582 21 11 21C13.2418 21 14.975 20.8786 16.3234 20.5789C17.6603 20.2818 18.5568 19.8229 19.1898 19.1898C19.8229 18.5568 20.2818 17.6603 20.5789 16.3234C20.8786 14.975 21 13.2418 21 11C21 8.7582 20.8786 7.02497 20.5789 5.67664C20.2818 4.33967 19.8229 3.44322 19.1898 2.81017C18.5568 2.17712 17.6603 1.71821 16.3234 1.42108C14.975 1.12143 13.2418 1 11 1C8.7582 1 7.02497 1.12143 5.67664 1.42108C4.33967 1.71821 3.44322 2.17712 2.81017 2.81017C2.17712 3.44322 1.71821 4.33967 1.42108 5.67664C1.12143 7.02497 1 8.7582 1 11Z" stroke="#334155" stroke-width="2px" stroke-linecap="round" stroke-linejoin="round" fill="none"></path>
    <path d="M15.569 11C15.569 10.2578 15.1273 9.75506 14.7133 9.41219C14.3256 9.09111 13.7773 8.76091 13.1729 8.39688C13.1522 8.38443 13.1314 8.37194 13.1106 8.35941L11.6299 7.46743C11.6086 7.45463 11.5874 7.44186 11.5663 7.42914C10.9631 7.06568 10.4144 6.73503 9.95247 6.54465C9.46505 6.34375 8.78927 6.17827 8.12994 6.57544C7.48653 6.96301 7.29813 7.62513 7.22401 8.14598C7.1522 8.65068 7.15227 9.30526 7.15234 10.0371C7.15234 10.0607 7.15234 10.0843 7.15234 10.108L7.15234 11.892C7.15234 11.9157 7.15234 11.9393 7.15234 11.9628C7.15227 12.6947 7.1522 13.3493 7.22401 13.854C7.29813 14.3748 7.48653 15.0369 8.12994 15.4245C8.78927 15.8217 9.46505 15.6562 9.95247 15.4553C10.4144 15.2649 10.9631 14.9343 11.5663 14.5708C11.5874 14.5581 11.6086 14.5453 11.6299 14.5325L13.1106 13.6405C13.1315 13.628 13.1522 13.6155 13.1729 13.6031C13.7773 13.239 14.3256 12.9089 14.7133 12.5878C15.1273 12.2449 15.569 11.7422 15.569 11Z" stroke="#334155" stroke-width="2px" stroke-linecap="round" stroke-linejoin="round" fill="none"></path>
</svg>