<svg xmlns:xlink="http://www.w3.org/1999/xlink" width="23" class=" text-biscay-700 dark:text-gray-900 dark:group-hover:text-dark-920 group-hover:text-biscay-300" height="23" viewBox="0 0 23 23" fill="none" xmlns="http://www.w3.org/2000/svg">

                                        <path fill-rule="evenodd" clip-rule="evenodd" d="M11.8025 18.0871C7.03723 18.0871 5.4658 16.5156 5.51682 11.8013C5.56785 7.08705 7.03723 5.51562 11.8025 5.51562C16.5678 5.51562 18.0882 7.08705 18.0882 11.8013C18.0882 16.5156 16.5678 18.0871 11.8025 18.0871Z" fill="#334155"></path>

                                        <path d="M11.8008 0.800781C12.2347 0.800781 12.5865 1.15256 12.5865 1.5865V3.15792C12.5865 3.59186 12.2347 3.94364 11.8008 3.94364C11.3668 3.94364 11.0151 3.59186 11.0151 3.15792V1.5865C11.0151 1.15256 11.3668 0.800781 11.8008 0.800781Z" fill="#334155" fill-opacity="0.4"></path>
                                        <path d="M12.5865 20.4436C12.5865 20.0097 12.2347 19.6579 11.8008 19.6579C11.3668 19.6579 11.0151 20.0097 11.0151 20.4436V22.0151C11.0151 22.449 11.3668 22.8008 11.8008 22.8008C12.2347 22.8008 12.5865 22.449 12.5865 22.0151V20.4436Z" fill="#334155" fill-opacity="0.4"></path>
                                        <path d="M22.8008 11.8008C22.8008 12.2347 22.449 12.5865 22.0151 12.5865H20.4436C20.0097 12.5865 19.6579 12.2347 19.6579 11.8008C19.6579 11.3668 20.0097 11.0151 20.4436 11.0151H22.0151C22.449 11.0151 22.8008 11.3668 22.8008 11.8008Z" fill="#334155" fill-opacity="0.4"></path>
                                        <path d="M3.15792 12.5865C3.59186 12.5865 3.94364 12.2347 3.94364 11.8008C3.94364 11.3668 3.59186 11.0151 3.15792 11.0151H1.5865C1.15256 11.0151 0.800781 11.3668 0.800781 11.8008C0.800781 12.2347 1.15256 12.5865 1.5865 12.5865H3.15792Z" fill="#334155" fill-opacity="0.4"></path>
                                        <path d="M3.38805 3.38805C3.6949 3.08121 4.19238 3.08121 4.49922 3.38805L5.61039 4.49922C5.91723 4.80606 5.91723 5.30355 5.61039 5.61039C5.30355 5.91723 4.80606 5.91723 4.49922 5.61039L3.38805 4.49922C3.08121 4.19238 3.08121 3.6949 3.38805 3.38805Z" fill="#334155" fill-opacity="0.4"></path>
                                        <path d="M4.49922 20.5388C4.19238 20.8457 3.6949 20.8457 3.38805 20.5388C3.08121 20.232 3.08121 19.7345 3.38805 19.4277L4.49922 18.3165C4.80606 18.0097 5.30355 18.0097 5.61039 18.3165C5.91723 18.6233 5.91723 19.1208 5.61039 19.4277L4.49922 20.5388Z" fill="#334155" fill-opacity="0.4"></path>
                                        <path d="M20.5388 3.38805C20.232 3.08121 19.7345 3.08121 19.4277 3.38805L18.3165 4.49922C18.0097 4.80606 18.0097 5.30355 18.3165 5.61039C18.6233 5.91723 19.1208 5.91723 19.4277 5.61039L20.5388 4.49922C20.8457 4.19238 20.8457 3.6949 20.5388 3.38805Z" fill="#334155" fill-opacity="0.4"></path>
                                        <path d="M19.4277 20.5388C19.7345 20.8457 20.232 20.8457 20.5388 20.5388C20.8457 20.232 20.8457 19.7345 20.5388 19.4277L19.4277 18.3165C19.1208 18.0097 18.6233 18.0097 18.3165 18.3165C18.0097 18.6233 18.0097 19.1208 18.3165 19.4277L19.4277 20.5388Z" fill="#334155" fill-opacity="0.4"></path>
                                    </svg>