<svg xmlns:xlink="http://www.w3.org/1999/xlink" class="ml-1" width="12" height="12" viewBox="0 0 12 12" fill="none" xmlns="http://www.w3.org/2000/svg">
                            <path d="M5.99646 0.827528C7.17456 0.827528 8.09169 0.881027 8.80899 1.01903C9.52386 1.15656 10.0045 1.37154 10.3411 1.66825C11.0098 2.25772 11.2804 3.32306 11.2804 5.47101C11.2804 6.85518 11.1561 7.87367 10.8215 8.53718C10.661 8.85564 10.4576 9.07995 10.2017 9.22916C9.94304 9.37996 9.59628 9.474 9.11892 9.474C8.5035 9.474 8.0416 9.61219 7.68041 9.85692C7.32786 10.0958 7.11521 10.4085 6.95703 10.6574C6.9331 10.6951 6.91069 10.7307 6.88949 10.7643C6.75685 10.9749 6.67103 11.1111 6.55187 11.2181C6.44568 11.3134 6.29728 11.3954 5.99659 11.3954C5.69593 11.3954 5.54754 11.3133 5.44133 11.218C5.32218 11.1111 5.23635 10.9749 5.10373 10.7643C5.08251 10.7307 5.0601 10.6951 5.03616 10.6574C4.87797 10.4085 4.66531 10.0958 4.31276 9.8569C3.95156 9.61218 3.48966 9.474 2.87424 9.474C2.39941 9.474 2.05376 9.37759 1.79518 9.22368C1.53855 9.07092 1.33387 8.84146 1.17225 8.51818C0.836472 7.84655 0.712507 6.82628 0.712507 5.47101C0.712507 3.35035 0.982347 2.28225 1.65335 1.68581C1.99094 1.38572 2.47232 1.1667 3.18628 1.02566C3.90284 0.884101 4.81936 0.827528 5.99646 0.827528Z" stroke="#607496" stroke-width="0.960719px" stroke-linecap="round" stroke-linejoin="round" fill="none"></path>
                            <path d="M6.47668 4.67017H8.39812" stroke="#607496" stroke-width="0.960719px" stroke-linecap="round" stroke-linejoin="round" fill="none"></path>
                            <path d="M3.59465 6.5918H8.39825" stroke="#607496" stroke-width="0.960719px" stroke-linecap="round" stroke-linejoin="round" fill="none"></path>
                        </svg>