<svg xmlns:xlink="http://www.w3.org/1999/xlink" width="25" height="23" viewBox="0 0 25 23" fill="none" xmlns="http://www.w3.org/2000/svg">
                                                            <circle opacity="0.15" cx="15.8062" cy="13.2944" r="9.19385" fill="#3B82F6"></circle>
                                                            <path fill-rule="evenodd" clip-rule="evenodd" d="M16.3214 2.11028C13.881 0.791546 12.2987 2.02656e-06 10.6634 0C9.02798 0 7.44568 0.791542 5.0053 2.11028L4.96149 2.13395L4.96148 2.13395C3.75491 2.78594 2.79516 3.30457 2.14113 3.74635C1.80989 3.97009 1.51103 4.20394 1.28922 4.45865C1.06485 4.7163 0.863281 5.06072 0.863281 5.48803V11.7601C0.863281 12.1931 1.21429 12.5441 1.64729 12.5441C2.08028 12.5441 2.43129 12.1931 2.43129 11.7601V7.41846C2.86981 7.69436 3.41342 8.00017 4.04977 8.34777C3.9992 8.97843 3.99926 9.79355 3.99934 10.8457L3.99935 10.9761C3.99935 14.8961 5.1708 15.6801 10.6364 15.6801C15.7594 15.6801 17.3274 14.8962 17.3274 10.9761C17.3274 9.86231 17.3274 9.00684 17.2715 8.35074C18.0591 7.92059 18.7049 7.5544 19.1856 7.22971C19.5168 7.00597 19.8156 6.77212 20.0375 6.51741C20.2618 6.25976 20.4634 5.91534 20.4634 5.48803C20.4634 5.06072 20.2618 4.7163 20.0375 4.45865C19.8156 4.20394 19.5168 3.97009 19.1856 3.74634C18.5315 3.30456 17.5718 2.78595 16.3652 2.13396L16.3214 2.11028ZM15.7452 9.17551C13.6245 10.3075 12.1664 10.9761 10.6634 10.9761C9.15979 10.9761 7.70108 10.307 5.5791 9.17422C5.56756 9.64289 5.56736 10.2286 5.56736 10.9761C5.56736 12.9088 5.89203 13.32 6.1699 13.5153C6.37815 13.6616 6.76763 13.8294 7.53133 13.9465C8.28954 14.0628 9.2921 14.1121 10.6364 14.1121C11.8908 14.1121 12.8546 14.0632 13.6025 13.947C14.3541 13.8302 14.7819 13.6605 15.0352 13.4922C15.3855 13.2595 15.7594 12.796 15.7594 10.9761C15.7594 10.2283 15.7582 9.643 15.7452 9.17551ZM3.01881 5.0457C2.72862 5.24172 2.56119 5.38576 2.47202 5.48803C2.56119 5.5903 2.72862 5.73434 3.01881 5.93036C3.60046 6.32325 4.49075 6.80543 5.75074 7.48631C8.28467 8.85559 9.50055 9.40805 10.6634 9.40805C11.8262 9.40805 13.042 8.85559 15.5759 7.48631C16.8359 6.80543 17.7262 6.32325 18.3079 5.93036C18.5981 5.73434 18.7655 5.5903 18.8547 5.48803C18.7655 5.38576 18.5981 5.24172 18.3079 5.0457C17.7262 4.65281 16.8359 4.17063 15.576 3.48976C13.042 2.12047 11.8262 1.56801 10.6634 1.56801C9.50055 1.56801 8.28467 2.12047 5.75074 3.48976C4.49075 4.17063 3.60046 4.65281 3.01881 5.0457ZM18.9077 5.55975L18.9067 5.55765C18.9074 5.55906 18.9077 5.55976 18.9077 5.55975ZM18.9077 5.4163L18.9067 5.41838C18.9071 5.41764 18.9073 5.4171 18.9075 5.41676C18.9076 5.41645 18.9077 5.4163 18.9077 5.4163ZM2.42001 5.41841C2.41927 5.417 2.41898 5.4163 2.41902 5.41631L2.42001 5.41841Z" fill="#3B82F6"></path>
                                                        </svg>