<svg xmlns:xlink="http://www.w3.org/1999/xlink" class="dark:text-white text-gray-800" width="16" height="22" viewBox="0 0 22 22" fill="none" xmlns="http://www.w3.org/2000/svg">
    <path d="M11 1C13.2467 1 14.9905 1.10211 16.3514 1.36394C17.7072 1.62479 18.6085 2.03066 19.2357 2.58352C20.4808 3.68104 21 5.6766 21 9.77779C21 12.4186 20.7621 14.3444 20.1333 15.5914C19.8328 16.1872 19.455 16.6021 18.9828 16.8774C18.5049 17.1561 17.8586 17.3333 16.9586 17.3333C15.7711 17.3333 14.8725 17.6002 14.1667 18.0784C13.4789 18.5444 13.0655 19.1538 12.7627 19.6303C12.7167 19.7028 12.6737 19.7709 12.6333 19.8351C12.3793 20.238 12.2224 20.4871 12.0042 20.6828C11.818 20.8499 11.555 21 11.0003 21C10.4455 21 10.1826 20.8499 9.9963 20.6828C9.77817 20.487 9.62119 20.238 9.36728 19.8351C9.3268 19.7709 9.28385 19.7027 9.23779 19.6302C8.93495 19.1537 8.52155 18.5444 7.83374 18.0784C7.12794 17.6002 6.2293 17.3333 5.04189 17.3333C4.14714 17.3333 3.50309 17.1517 3.02535 16.8674C2.55165 16.5854 2.17112 16.1607 1.86852 15.5554C1.23723 14.2927 1 12.3632 1 9.77779C1 5.72906 1.51762 3.72774 2.76743 2.6168C3.3967 2.05745 4.29954 1.64398 5.6535 1.37651C7.01286 1.10797 8.75542 1 11 1Z" stroke="#475466" stroke-width="2px" stroke-linecap="round" stroke-linejoin="round" fill="none"></path>
    <path d="M11.917 8.25H15.5837" stroke="#475466" stroke-width="2px" stroke-linecap="round" stroke-linejoin="round" fill="none"></path>
    <path d="M6.41602 11.918H15.5827" stroke="#475466" stroke-width="2px" stroke-linecap="round" stroke-linejoin="round" fill="none"></path>
</svg>