<svg xmlns:xlink="http://www.w3.org/1999/xlink" width="23" height="15" viewBox="0 0 23 15" fill="none" xmlns="http://www.w3.org/2000/svg" class="mr-3">
                            <path fill="#64748B" opacity="0.4" d="M16.5073 5.95326L21.0753 5.54929C22.1004 5.54929 22.9315 6.38853 22.9315 7.42364C22.9315 8.45875 22.1004 9.29799 21.0753 9.29799L16.5073 8.89401C15.7031 8.89401 15.0511 8.23568 15.0511 7.42364C15.0511 6.61024 15.7031 5.95326 16.5073 5.95326"></path>
                            <path fill="#64748B" d="M1.16789 6.02753C1.23929 5.95544 1.50601 5.65076 1.75657 5.39776C3.21814 3.81313 7.0344 1.22195 9.03076 0.428959C9.33385 0.302461 10.1003 0.0331419 10.5112 0.0140991C10.9032 0.0140991 11.2777 0.105232 11.6347 0.284778C12.0805 0.536415 12.4362 0.933592 12.6328 1.4015C12.7581 1.72523 12.9548 2.69777 12.9548 2.71545C13.1501 3.77776 13.2565 5.50521 13.2565 7.41493C13.2565 9.23215 13.1501 10.8889 12.9898 11.9689C12.9723 11.9879 12.7756 13.1944 12.5614 13.6079C12.1694 14.3642 11.403 14.8321 10.5826 14.8321H10.5112C9.97641 14.8144 8.85295 14.3451 8.85295 14.3288C6.963 13.5358 3.237 11.0698 1.73905 9.43074C1.73905 9.43074 1.31607 9.00908 1.13287 8.74656C0.84729 8.36843 0.704501 7.90052 0.704501 7.43261C0.704501 6.9103 0.864802 6.42471 1.16789 6.02753"></path>
                        </svg>