<svg xmlns:xlink="http://www.w3.org/1999/xlink" class="mr-1 ml-2" width="20" height="22" viewBox="0 0 20 22" fill="none" xmlns="http://www.w3.org/2000/svg">
    <ellipse opacity="0.15" rx="9.35499" ry="8.68976" transform="matrix(0.999965 -0.00839685 0.00973181 0.999953 10.5608 12.9399)" fill="#3B82F6"></ellipse>
    <path d="M2.20588 5.48534C2.20588 3.13448 2.57353 0 5.88234 0C9.19116 0 9.55881 3.13448 9.55881 5.48534C9.55881 7.8362 9.19116 10.9707 5.88234 10.9707C2.57352 10.9707 2.20588 7.8362 2.20588 5.48534Z" fill="#3B82F6"></path>
    <path d="M0.735293 6.85668C0.329202 6.85668 0 7.16366 0 7.54235C0 9.71338 1.60766 12.6347 5.14806 12.9915C5.14739 13.0035 5.14705 13.0155 5.14705 13.0277V13.7134H3.67646C3.27037 13.7134 2.94117 14.0203 2.94117 14.399C2.94117 14.7777 3.27037 15.0847 3.67646 15.0847H8.08822C8.49431 15.0847 8.82351 14.7777 8.82351 14.399C8.82351 14.0203 8.49431 13.7134 8.08822 13.7134H6.61764V13.0277C6.61764 13.0155 6.61729 13.0035 6.61663 12.9915C10.157 12.6347 11.7647 9.71337 11.7647 7.54235C11.7647 7.16366 11.4355 6.85668 11.0294 6.85668C10.6233 6.85668 10.2941 7.16366 10.2941 7.54235C10.2941 9.34052 8.88807 11.6564 5.88234 11.6564C2.87662 11.6564 1.47059 9.34052 1.47059 7.54235C1.47059 7.16366 1.14138 6.85668 0.735293 6.85668Z" fill="#3B82F6"></path>
</svg>