<svg xmlns:xlink="http://www.w3.org/1999/xlink" width="19" height="14" viewBox="0 0 19 14" fill="none" xmlns="http://www.w3.org/2000/svg">
                                    <path class="fill-current transition duration-300 ease-linear dark:text-blue-950 text-blue-700 group-hover:text-white" d="M18.6728 2.84651C18.6728 2.84651 18.4918 1.56883 17.9344 1.00782C17.2286 0.269445 16.4396 0.265826 16.0776 0.222392C13.4861 0.0341796 9.59518 0.0341797 9.59518 0.0341797H9.58794C9.58794 0.0341797 5.69701 0.0341796 3.10547 0.222392C2.74352 0.265826 1.95448 0.269445 1.24868 1.00782C0.691281 1.56883 0.513926 2.84651 0.513926 2.84651C0.513926 2.84651 0.325714 4.34859 0.325714 5.84705V7.2514C0.325714 8.74986 0.510307 10.2519 0.510307 10.2519C0.510307 10.2519 0.69128 11.5296 1.24506 12.0906C1.95086 12.829 2.87744 12.8037 3.29006 12.8833C4.77404 13.0245 9.59155 13.0679 9.59155 13.0679C9.59155 13.0679 13.4861 13.0607 16.0776 12.8761C16.4396 12.8326 17.2286 12.829 17.9344 12.0906C18.4918 11.5296 18.6728 10.2519 18.6728 10.2519C18.6728 10.2519 18.8574 8.75348 18.8574 7.2514V5.84705C18.8574 4.34859 18.6728 2.84651 18.6728 2.84651ZM7.67686 8.95617V3.74776L12.6826 6.36101L7.67686 8.95617Z" fill="#3B82F6"></path>
                                </svg>