<svg xmlns:xlink="http://www.w3.org/1999/xlink" class="ml-1" width="10" height="12" viewBox="0 0 10 12" fill="none" xmlns="http://www.w3.org/2000/svg">
                        <path fill-rule="evenodd" clip-rule="evenodd" d="M2.60509 1.45136C2.44111 1.61533 2.36357 1.8075 2.33008 2.00642C2.93427 1.89004 3.6854 1.84615 4.61527 1.84615C5.54514 1.84615 6.29627 1.89004 6.90046 2.00642C6.86697 1.8075 6.78942 1.61533 6.62545 1.45136C6.37407 1.19998 5.82701 0.923077 4.61527 0.923077C3.40353 0.923077 2.85647 1.19998 2.60509 1.45136ZM1.95237 0.798643C1.44953 1.30148 1.38477 1.91343 1.3845 2.30521C0.299759 2.83849 -0.000112534 3.92458 -0.000112534 6C-0.000112534 8.07542 0.299759 9.16151 1.3845 9.69479C1.38477 10.0866 1.44953 10.6985 1.95237 11.2014C2.45099 11.7 3.28854 12 4.61527 12C5.942 12 6.77955 11.7 7.27817 11.2014C7.78101 10.6985 7.84577 10.0866 7.84604 9.69479C8.93079 9.16151 9.23066 8.07542 9.23066 6C9.23066 3.92458 8.93079 2.83849 7.84604 2.30521C7.84577 1.91344 7.78101 1.30149 7.27817 0.798644C6.77955 0.300024 5.942 0 4.61527 0C3.28854 0 2.45099 0.300024 1.95237 0.798643ZM6.90046 9.99358C6.29626 10.11 5.54514 10.1538 4.61527 10.1538C3.68541 10.1538 2.93428 10.11 2.33008 9.99358C2.36357 10.1925 2.44111 10.3847 2.60509 10.5486C2.85647 10.8 3.40353 11.0769 4.61527 11.0769C5.82701 11.0769 6.37407 10.8 6.62545 10.5486C6.78943 10.3847 6.86696 10.1925 6.90046 9.99358ZM1.4998 8.67356C1.15669 8.36477 0.922964 7.73297 0.922964 6C0.922964 4.26703 1.15669 3.63523 1.4998 3.32643C1.67362 3.16999 1.9565 3.02236 2.47171 2.91931C2.99245 2.81515 3.68384 2.76923 4.61527 2.76923C5.54671 2.76923 6.2381 2.81515 6.75883 2.91931C7.27405 3.02236 7.55692 3.16999 7.73075 3.32643C8.07385 3.63523 8.30758 4.26703 8.30758 6C8.30758 7.73297 8.07385 8.36477 7.73075 8.67356C7.55692 8.83001 7.27405 8.97764 6.75883 9.08069C6.2381 9.18485 5.54671 9.23077 4.61527 9.23077C3.68384 9.23077 2.99245 9.18485 2.47171 9.08069C1.9565 8.97764 1.67362 8.83001 1.4998 8.67356Z" fill="#8092B0"></path>
                        <path d="M4.61548 4.15381C4.61548 4.15381 4.61548 5.07689 4.61548 5.53842C4.61548 5.99996 4.61547 5.99996 5.07702 5.99996C5.53856 5.99996 6.92317 5.99996 6.92317 5.99996" stroke="#8092B0" stroke-width="0.923077px" stroke-linecap="round" stroke-linejoin="round" fill="none"></path>
                    </svg>