<svg xmlns:xlink="http://www.w3.org/1999/xlink" class="" width="16" height="22" viewBox="0 0 22 22" fill="none" xmlns="http://www.w3.org/2000/svg">
    <path d="M11.1004 14.1057L7.54369 17.6624C7.11308 18.078 6.53798 18.3102 5.93952 18.3102C5.34107 18.3102 4.76597 18.078 4.33536 17.6624C4.12416 17.452 3.95658 17.202 3.84224 16.9267C3.72789 16.6515 3.66903 16.3563 3.66903 16.0582C3.66903 15.7601 3.72789 15.465 3.84224 15.1897C3.95658 14.9144 4.12416 14.6644 4.33536 14.454L7.89202 10.8974C8.06464 10.7248 8.16161 10.4907 8.16161 10.2465C8.16161 10.0024 8.06464 9.76833 7.89202 9.59572C7.71941 9.4231 7.4853 9.32613 7.24119 9.32613C6.99708 9.32613 6.76297 9.4231 6.59036 9.59572L3.03369 13.1615C2.31718 13.9414 1.92968 14.968 1.95209 16.0268C1.97451 17.0856 2.40512 18.0949 3.15399 18.8438C3.90286 19.5926 4.91209 20.0232 5.97092 20.0456C7.02975 20.0681 8.0563 19.6806 8.83619 18.9641L12.402 15.4074C12.5746 15.2348 12.6716 15.0007 12.6716 14.7565C12.6716 14.5124 12.5746 14.2783 12.402 14.1057C12.2294 13.9331 11.9953 13.8361 11.7512 13.8361C11.5071 13.8361 11.273 13.9331 11.1004 14.1057ZM18.9654 3.03238C18.1942 2.26605 17.1513 1.83594 16.0641 1.83594C14.977 1.83594 13.934 2.26605 13.1629 3.03238L9.59703 6.58905C9.51156 6.67452 9.44376 6.77598 9.3975 6.88765C9.35125 6.99932 9.32744 7.11901 9.32744 7.23988C9.32744 7.36075 9.35125 7.48044 9.3975 7.59211C9.44376 7.70378 9.51156 7.80525 9.59703 7.89071C9.68249 7.97618 9.78396 8.04398 9.89563 8.09024C10.0073 8.13649 10.127 8.1603 10.2479 8.1603C10.3687 8.1603 10.4884 8.13649 10.6001 8.09024C10.7118 8.04398 10.8132 7.97618 10.8987 7.89071L14.4554 4.33405C14.886 3.91846 15.4611 3.6862 16.0595 3.6862C16.658 3.6862 17.2331 3.91846 17.6637 4.33405C17.8749 4.54441 18.0425 4.79441 18.1568 5.06969C18.2712 5.34497 18.33 5.64013 18.33 5.93822C18.33 6.2363 18.2712 6.53146 18.1568 6.80674C18.0425 7.08202 17.8749 7.33202 17.6637 7.54238L14.107 11.099C14.0211 11.1843 13.9529 11.2856 13.9064 11.3974C13.8598 11.5091 13.8359 11.6289 13.8359 11.7499C13.8359 11.8709 13.8598 11.9907 13.9064 12.1024C13.9529 12.2141 14.0211 12.3155 14.107 12.4007C14.1922 12.4866 14.2936 12.5548 14.4053 12.6014C14.517 12.6479 14.6368 12.6719 14.7579 12.6719C14.8789 12.6719 14.9987 12.6479 15.1104 12.6014C15.2221 12.5548 15.3235 12.4866 15.4087 12.4007L18.9654 8.83488C19.7317 8.06376 20.1618 7.02077 20.1618 5.93363C20.1618 4.84649 19.7317 3.8035 18.9654 3.03238ZM8.09369 13.904C8.17934 13.989 8.28093 14.0562 8.39261 14.1018C8.50429 14.1475 8.62389 14.1706 8.74452 14.1699C8.86516 14.1706 8.98475 14.1475 9.09644 14.1018C9.20812 14.0562 9.30971 13.989 9.39536 13.904L13.9054 9.39405C14.078 9.22144 14.1749 8.98732 14.1749 8.74322C14.1749 8.4991 14.078 8.26499 13.9054 8.09238C13.7327 7.91977 13.4986 7.8228 13.2545 7.8228C13.0104 7.8228 12.7763 7.91977 12.6037 8.09238L8.09369 12.6024C8.00777 12.6876 7.93958 12.789 7.89304 12.9007C7.8465 13.0124 7.82254 13.1322 7.82254 13.2532C7.82254 13.3742 7.8465 13.494 7.89304 13.6057C7.93958 13.7174 8.00777 13.8188 8.09369 13.904Z" fill="#334155"></path>
</svg>