<svg xmlns:xlink="http://www.w3.org/1999/xlink" class="dark:text-white text-gray-800  " width="16" height="22" viewBox="0 0 22 22" fill="none" xmlns="http://www.w3.org/2000/svg">
    <path d="M1 11C1 13.2418 1.12143 14.975 1.42108 16.3234C1.71821 17.6603 2.17712 18.5568 2.81017 19.1898C3.44322 19.8229 4.33967 20.2818 5.67664 20.5789C7.02497 20.8786 8.7582 21 11 21C13.2418 21 14.975 20.8786 16.3234 20.5789C17.6603 20.2818 18.5568 19.8229 19.1898 19.1898C19.8229 18.5568 20.2818 17.6603 20.5789 16.3234C20.8786 14.975 21 13.2418 21 11C21 8.7582 20.8786 7.02497 20.5789 5.67664C20.2818 4.33967 19.8229 3.44322 19.1898 2.81017C18.5568 2.17712 17.6603 1.71821 16.3234 1.42108C14.975 1.12143 13.2418 1 11 1C8.7582 1 7.02497 1.12143 5.67664 1.42108C4.33967 1.71821 3.44322 2.17712 2.81017 2.81017C2.17712 3.44322 1.71821 4.33967 1.42108 5.67664C1.12143 7.02497 1 8.7582 1 11Z" stroke="#475466" stroke-width="2px" stroke-linecap="round" stroke-linejoin="round" fill="none"></path>
    <path d="M9.16699 6.41666H12.8337" stroke="#475466" stroke-width="2px" stroke-linecap="round" stroke-linejoin="round" fill="none"></path>
    <path d="M6.41699 11H15.5837" stroke="#475466" stroke-width="2px" stroke-linecap="round" stroke-linejoin="round" fill="none"></path>
    <path d="M9.16699 15.5833L12.8337 15.5833" stroke="#475466" stroke-width="2px" stroke-linecap="round" stroke-linejoin="round" fill="none"></path>
</svg>