<svg xmlns:xlink="http://www.w3.org/1999/xlink" class="ml-1" width="24" height="25" viewBox="0 0 24 25" fill="none" xmlns="http://www.w3.org/2000/svg">
                                <circle opacity="0.15" cx="12.3578" cy="13.5069" r="7.94769" transform="rotate(-36.651 12.3578 13.5069)" fill="#FFA826"></circle>
                                <path fill-rule="evenodd" clip-rule="evenodd" d="M6.72321 0.208862C6.45828 0.208862 6.26053 0.35318 6.14832 0.454879C6.02488 0.566749 5.91615 0.708328 5.82226 0.849867C5.63271 1.13563 5.44676 1.50898 5.27825 1.88909C4.93866 2.6551 4.63204 3.53586 4.47178 4.01668C4.46943 4.02373 4.4625 4.02928 4.45412 4.02956C3.95201 4.04653 3.0318 4.09156 2.22974 4.20919C1.8335 4.2673 1.43445 4.34742 1.12288 4.46344C0.969463 4.52057 0.802156 4.59893 0.664155 4.71262C0.524486 4.82767 0.358276 5.02932 0.358276 5.32011C0.358276 5.52123 0.434367 5.69926 0.503244 5.82631C0.57707 5.96248 0.674638 6.09744 0.779001 6.22488C0.98818 6.48031 1.26477 6.75375 1.55073 7.0138C2.1254 7.53639 2.79089 8.05244 3.16952 8.33775C3.17549 8.34225 3.17827 8.34976 3.1758 8.35787C3.03039 8.83525 2.77785 9.70874 2.61721 10.5189C2.53741 10.9213 2.47579 11.3298 2.46654 11.6748C2.46193 11.8464 2.46949 12.024 2.50381 12.1869C2.53577 12.3386 2.60599 12.5516 2.78573 12.7104C2.98745 12.8887 3.23024 12.9124 3.39834 12.902C3.57024 12.8913 3.74241 12.8416 3.89583 12.7837C4.20566 12.6667 4.5554 12.4711 4.89075 12.2598C5.56821 11.833 6.28556 11.279 6.69351 10.9533C6.70089 10.9474 6.71174 10.9472 6.71948 10.9534C7.12735 11.2794 7.84528 11.8337 8.52781 12.2608C8.86585 12.4724 9.21921 12.668 9.53437 12.7848C9.69084 12.8428 9.86477 12.8916 10.0382 12.902C10.2085 12.9122 10.4446 12.8883 10.646 12.7229C10.8348 12.568 10.9132 12.3551 10.9496 12.1972C10.9879 12.031 10.9968 11.8505 10.9926 11.6775C10.984 11.33 10.9192 10.92 10.8353 10.5177C10.6661 9.70737 10.3985 8.83366 10.2436 8.35427C10.2409 8.34578 10.2438 8.33785 10.25 8.33318C10.6305 8.04628 11.2945 7.53095 11.8673 7.00964C12.1523 6.75023 12.4278 6.47757 12.6361 6.22282C12.7401 6.09572 12.8372 5.96109 12.9108 5.8252C12.9794 5.69837 13.0552 5.52076 13.0552 5.32011C13.0552 5.02963 12.8893 4.82808 12.7497 4.71299C12.6119 4.5993 12.4448 4.52094 12.2916 4.46381C11.9804 4.34781 11.5819 4.26769 11.1862 4.20956C10.3852 4.0919 9.46569 4.04674 8.96245 4.02967C8.95396 4.02938 8.94716 4.02385 8.94484 4.01674C8.78821 3.53449 8.48928 2.65449 8.15655 1.88953C7.99147 1.50999 7.80882 1.13701 7.62164 0.851364C7.52894 0.709898 7.42117 0.56804 7.29818 0.455807C7.18605 0.353491 6.98852 0.208862 6.72321 0.208862Z" fill="#FFA826"></path>
                            </svg>