<svg xmlns:xlink="http://www.w3.org/1999/xlink" class="dark:text-blue-950 text-blue-980 absolute -top-1 -left-2" width="17" height="17" viewBox="0 0 17 17" fill="none" xmlns="http://www.w3.org/2000/svg">
                                        <path d="M8.83538 10.3C9.27844 10.6121 9.74293 10.8745 10.2217 11.0731C10.519 11.1809 10.9855 10.8756 11.3285 10.6511L11.3286 10.6511C11.4143 10.595 11.4923 10.544 11.558 10.5057L11.5796 10.4936C11.9027 10.3121 12.2615 10.1106 12.7228 10.2078C13.1373 10.2929 14.5594 11.4136 14.9524 11.8108C15.2097 12.0661 15.3526 12.3357 15.374 12.6123C15.4169 13.6408 14.0377 14.7969 13.709 14.9955C13.0087 15.5062 12.0725 15.4991 10.9435 14.9884C9.73579 14.499 8.29228 13.4705 6.8988 12.2222C6.39998 11.7753 5.44205 10.8344 5.16944 10.5202C3.76167 8.99521 2.57543 7.35674 2.01803 6.03036C1.75363 5.47002 1.625 4.95224 1.625 4.4912C1.625 4.03725 1.75363 3.63295 2.00374 3.2854C2.15381 3.02296 3.36149 1.59018 4.42625 1.62565C4.69066 1.65402 4.96221 1.78878 5.22661 2.04413C5.62679 2.43424 6.7773 3.84574 6.86306 4.26422C6.96089 4.71509 6.75803 5.07099 6.57526 5.39163L6.57526 5.39163L6.56292 5.41328C6.52173 5.48445 6.46588 5.56888 6.40483 5.66117L6.40482 5.66118C6.1799 6.0012 5.8843 6.44805 5.99052 6.73257C6.25564 7.38512 6.63438 8.02348 7.09102 8.6122C7.59779 9.21811 8.39233 9.98789 8.83538 10.3Z" stroke="#3B82F6" stroke-width="1.5px" stroke-opacity="0.25" fill="none"></path>
                                    </svg>