<svg xmlns:xlink="http://www.w3.org/1999/xlink" width="19" height="15" viewBox="0 0 19 15" fill="none" xmlns="http://www.w3.org/2000/svg">
                                    <path class="fill-current transition duration-300 ease-linear dark:text-blue-950 text-blue-700 group-hover:text-white" d="M6.42709 14.3713C13.0839 14.3713 16.726 8.85479 16.726 4.07238C16.726 3.91729 16.7225 3.75876 16.7156 3.60368C17.4241 3.09132 18.0355 2.45668 18.5211 1.72959C17.8613 2.02316 17.1607 2.21489 16.4434 2.29823C17.1987 1.84547 17.7643 1.1342 18.0352 0.296281C17.3246 0.717401 16.5475 1.01446 15.7372 1.17474C15.1913 0.594624 14.4694 0.210518 13.6832 0.081809C12.8971 -0.0469004 12.0904 0.086955 11.388 0.46268C10.6855 0.838405 10.1264 1.43507 9.79706 2.16043C9.46772 2.88579 9.38651 3.69945 9.56597 4.47559C8.12714 4.40339 6.71954 4.02962 5.43443 3.37852C4.14932 2.72741 3.01539 1.81351 2.10614 0.69605C1.64401 1.49281 1.5026 2.43565 1.71064 3.33293C1.91869 4.23021 2.46058 5.01461 3.22618 5.52671C2.65141 5.50846 2.08923 5.35371 1.58609 5.07525V5.12005C1.58558 5.95619 1.87464 6.76671 2.40415 7.41383C2.93365 8.06095 3.67092 8.50472 4.49062 8.66972C3.95819 8.8154 3.39938 8.83662 2.85743 8.73176C3.08873 9.45084 3.53877 10.0798 4.14473 10.5308C4.75068 10.9818 5.48233 11.2324 6.23755 11.2475C4.9554 12.2547 3.37158 12.801 1.74118 12.7984C1.45204 12.7979 1.16318 12.7802 0.87616 12.7453C2.53248 13.8079 4.45922 14.3723 6.42709 14.3713Z" fill="#3B82F6"></path>
                                </svg>