<svg xmlns:xlink="http://www.w3.org/1999/xlink" class="ml-4" width="39" height="40" viewBox="0 0 39 40" fill="none" xmlns="http://www.w3.org/2000/svg">
              <path d="M15.5834 10.0833C15.0772 10.0833 14.6667 10.4937 14.6667 10.9999C14.6667 11.5062 15.0772 11.9166 15.5834 11.9166H17.4167C17.923 11.9166 18.3334 11.5062 18.3334 10.9999C18.3334 10.4937 17.923 10.0833 17.4167 10.0833H15.5834Z" fill="#98A3B8"></path>
              <path d="M19.9553 6.41675H15.6249C15.0175 6.41675 14.4161 6.5353 13.855 6.76565C13.2939 6.99596 12.7841 7.33358 12.3546 7.75919C11.9251 8.18479 11.5845 8.69004 11.3521 9.24611C11.1196 9.80219 11 10.3982 11 11.0001C11 11.602 11.1196 12.198 11.3521 12.7541C11.5845 13.3101 11.9251 13.8154 12.3546 14.241C12.7841 14.6666 13.2939 15.0042 13.855 15.2345C14.4161 15.4649 15.0175 15.5834 15.6249 15.5834H19.9553C20.0489 15.0415 20.1187 14.4336 20.1667 13.7501H15.6249C15.2605 13.7501 14.8996 13.6789 14.563 13.5407C14.2263 13.4026 13.9204 13.2 13.6627 12.9446C13.405 12.6893 13.2006 12.3861 13.0612 12.0525C12.9217 11.7188 12.8499 11.3612 12.8499 11.0001C12.8499 10.639 12.9217 10.2813 13.0612 9.94771C13.2006 9.61406 13.405 9.3109 13.6627 9.05555C13.9204 8.80017 14.2263 8.59761 14.563 8.45941C14.8996 8.32122 15.2605 8.25008 15.6249 8.25008H20.1667C20.1187 7.56655 20.0489 6.9587 19.9553 6.41675Z" fill="#98A3B8"></path>
              <path fill-rule="evenodd" clip-rule="evenodd" d="M0 11C0 20.0585 1.9415 22 11 22C20.0585 22 22 20.0585 22 11C22 1.9415 20.0585 0 11 0C1.9415 0 0 1.9415 0 11ZM1.83333 11C1.83333 13.2228 1.95483 14.8838 2.23457 16.1426C2.50968 17.3805 2.91288 18.114 3.39943 18.6006C3.88597 19.0871 4.61954 19.4903 5.85743 19.7654C7.11615 20.0452 8.77722 20.1667 11 20.1667C13.2228 20.1667 14.8838 20.0452 16.1426 19.7654C17.3805 19.4903 18.114 19.0871 18.6006 18.6006C19.0871 18.114 19.4903 17.3805 19.7654 16.1426C20.0452 14.8838 20.1667 13.2228 20.1667 11C20.1667 8.77722 20.0452 7.11615 19.7654 5.85743C19.4903 4.61954 19.0871 3.88597 18.6006 3.39943C18.114 2.91288 17.3805 2.50968 16.1426 2.23457C14.8838 1.95483 13.2228 1.83333 11 1.83333C8.77722 1.83333 7.11615 1.95483 5.85743 2.23457C4.61954 2.50968 3.88597 2.91288 3.39943 3.39943C2.91288 3.88597 2.50968 4.61954 2.23457 5.85743C1.95483 7.11615 1.83333 8.77722 1.83333 11Z" fill="#98A3B8"></path>
              <circle opacity="0.15" cx="19.348" cy="20.348" r="13.8275" transform="rotate(-33.8601 19.348 20.348)" fill="#98A3B8"></circle>
            </svg>