<svg xmlns:xlink="http://www.w3.org/1999/xlink" class="ml-1" width="10" height="10" viewBox="0 0 10 10" fill="none" xmlns="http://www.w3.org/2000/svg">
                                    <path class="fill-current transition duration-200 text-blue-700 group-hover:text-white" fill-rule="evenodd" clip-rule="evenodd" d="M5.00525 4.99988C4.77513 4.99988 4.58858 5.18643 4.58858 5.41654C4.58858 5.64666 4.77513 5.83321 5.00525 5.83321L6.67725 5.83321C6.90737 5.83321 7.09392 5.64666 7.09392 5.41654C7.09392 5.18643 6.90737 4.99988 6.67725 4.99988H5.00525ZM3.3335 6.67224C3.10338 6.67224 2.91683 6.85879 2.91683 7.08891C2.91683 7.31903 3.10338 7.50557 3.3335 7.50557L6.6775 7.50557C6.90762 7.50557 7.09416 7.31903 7.09416 7.08891C7.09416 6.85879 6.90762 6.67224 6.6775 6.67224L3.3335 6.67224Z" fill="#3B82F6"></path>
                                    <path class="stroke-current transition duration-200 text-blue-700 group-hover:text-white" d="M7.08323 2.17834C6.6357 2.13634 6.1178 2.11907 5.52165 2.11907C1.83979 2.11907 0.958571 2.77779 0.528906 5.85116C0.46337 6.31993 0.424047 6.73253 0.41753 7.09518M7.08323 2.17834C9.3997 2.39569 9.83099 3.27541 9.47089 5.85116C9.04123 8.92452 8.16001 9.58323 4.47814 9.58323C1.35787 9.58323 0.381319 9.11014 0.41753 7.09518M7.08323 2.17834C7.08323 2.17834 7.14666 1.79476 7.08323 1.28972C6.92699 0.0456842 1.79278 0.208173 1.24992 1.28972C0.417377 2.9484 0.41753 7.09518 0.41753 7.09518" stroke-width="0.833333px" stroke-linecap="round" stroke-linejoin="round" stroke="#3B82F6" fill="none"></path>
                                </svg>