<svg xmlns:xlink="http://www.w3.org/1999/xlink" class="dark:text-white text-dark-550" width="23" height="16" viewBox="0 0 23 16" fill="none" xmlns="http://www.w3.org/2000/svg">
                            <path opacity="0.4" d="M16.5073 6.34863L21.0752 5.94466C22.1003 5.94466 22.9315 6.7839 22.9315 7.81901C22.9315 8.85412 22.1003 9.69336 21.0752 9.69336L16.5073 9.28938C15.7031 9.28938 15.0511 8.63105 15.0511 7.81901C15.0511 7.00561 15.7031 6.34863 16.5073 6.34863" fill="#64748B"></path>
                            <path d="M1.16786 6.42292C1.23926 6.35083 1.50598 6.04614 1.75653 5.79314C3.21811 4.20852 7.03437 1.61734 9.03073 0.824345C9.33382 0.697847 10.1003 0.428528 10.5112 0.409485C10.9032 0.409485 11.2776 0.500618 11.6346 0.680164C12.0805 0.931801 12.4361 1.32898 12.6328 1.79689C12.7581 2.12061 12.9548 3.09315 12.9548 3.11084C13.1501 4.17315 13.2565 5.9006 13.2565 7.81032C13.2565 9.62754 13.1501 11.2843 12.9898 12.3643C12.9723 12.3833 12.7756 13.5898 12.5614 14.0033C12.1694 14.7596 11.4029 15.2275 10.5826 15.2275H10.5112C9.97638 15.2098 8.85292 14.7405 8.85292 14.7242C6.96297 13.9312 3.23697 11.4652 1.73902 9.82613C1.73902 9.82613 1.31604 9.40447 1.13284 9.14195C0.84726 8.76381 0.70447 8.29591 0.70447 7.828C0.70447 7.30568 0.864772 6.82009 1.16786 6.42292" fill="#64748B"></path>
                        </svg>