<svg xmlns:xlink="http://www.w3.org/1999/xlink" class="" xmlns="http://www.w3.org/2000/svg" width="24.028" height="23.829" viewBox="0 0 24.028 23.829">
    <path id="Home" d="M7,22.73l10,.007L6,22.614a5.863,5.863,0,0,1-3.018-1.049,3.894,3.894,0,0,1-1.272-2.348,30.521,30.521,0,0,1-.513-10,1.838,1.838,0,0,1,.128-.181A8.216,8.216,0,0,1,2,8.3c.6-.6,1.445-1.33,2.4-2.124C6.323,4.6,8.644,2.832,10.337,1.572a2.869,2.869,0,0,1,3.427-.008c1.706,1.259,4.048,3.025,5.967,4.61.962.795,1.8,1.529,2.394,2.123a7.282,7.282,0,0,1,.653.725c.048.064.079.111.1.144a38.532,38.532,0,0,1-.5,10.072,3.707,3.707,0,0,1-1.244,2.334,5.939,5.939,0,0,1-3.039,1.042q-.547.068-1.089.125V16.114a3.147,3.147,0,0,0-3-3H10a3.147,3.147,0,0,0-3,3v6.575l-1.3-.111ZM1.18,9.253l0-.006ZM22.9,9.211l0-.007Z" transform="translate(0.04 0.091)" fill="none" stroke="#334155" stroke-linecap="round" stroke-linejoin="round" stroke-width="2px"></path>
</svg>