<svg xmlns:xlink="http://www.w3.org/1999/xlink" class="ml-1 text-gray-500 dark:text-gray-940" width="13" height="13" viewBox="0 0 16 16" fill="none" xmlns="http://www.w3.org/2000/svg">
    <path d="M0.364577 8C0.364577 9.63868 0.452857 10.9306 0.679456 11.9502C0.905136 12.9657 1.26314 13.6885 1.78729 14.2127C2.31145 14.7369 3.03431 15.0949 4.04978 15.3205C5.06939 15.5471 6.36132 15.6354 8 15.6354C9.63868 15.6354 10.9306 15.5471 11.9502 15.3205C12.9657 15.0949 13.6885 14.7369 14.2127 14.2127C14.7369 13.6885 15.0949 12.9657 15.3205 11.9502C15.5471 10.9306 15.6354 9.63868 15.6354 8C15.6354 6.36132 15.5471 5.06939 15.3205 4.04978C15.0949 3.03432 14.7369 2.31145 14.2127 1.7873C13.6885 1.26314 12.9657 0.905137 11.9502 0.679458C10.9306 0.452858 9.63868 0.364578 8 0.364578C6.36132 0.364578 5.06939 0.452858 4.04978 0.679458C3.03431 0.905137 2.31145 1.26314 1.78729 1.7873C1.26314 2.31145 0.905136 3.03432 0.679456 4.04978C0.452857 5.06939 0.364577 6.36132 0.364577 8Z" stroke="#607496" stroke-width="0.729154px" stroke-linecap="round" stroke-linejoin="round" fill="none"></path>
    <path d="M8 4C8 4 8 6.66667 8 7.33333C8 8 7.99999 8 8.66667 8C9.33334 8 12 8 12 8" stroke="#607496" stroke-width="0.729154px" stroke-linecap="round" stroke-linejoin="round" fill="none"></path>
</svg>