<svg xmlns:xlink="http://www.w3.org/1999/xlink" class="w-30 h-30 text-black" xmlns="http://www.w3.org/2000/svg" viewBox="0 0 42.418 30.106" width="42.418"  height="30.106" >
    <g id="javascript-js-seeklogo.com" transform="translate(-67.311 -116.153)">
        <path fill="currentColor" d="M67.311,141.76l4.924-2.98c.95,1.684,1.814,3.109,3.887,3.109,1.987,0,3.24-.777,3.24-3.8v-20.56H85.41v20.646c0,6.263-3.671,9.114-9.028,9.114a9.385,9.385,0,0,1-9.071-5.529" transform="translate(0 -1.03)"></path>
        <path fill="currentColor" d="M152.381,140.082l4.924-2.851c1.3,2.117,2.981,3.672,5.961,3.672,2.506,0,4.1-1.253,4.1-2.981,0-2.073-1.641-2.808-4.406-4.017l-1.511-.648c-4.363-1.857-7.257-4.19-7.257-9.114,0-4.535,3.456-7.991,8.855-7.991,3.844,0,6.609,1.339,8.6,4.838l-4.708,3.024c-1.037-1.857-2.159-2.591-3.887-2.591a2.631,2.631,0,0,0-2.894,2.591c0,1.814,1.123,2.548,3.715,3.672l1.512.648c5.14,2.2,8.034,4.449,8.034,9.5,0,5.443-4.276,8.423-10.021,8.423-5.615,0-9.243-2.678-11.014-6.177" transform="translate(-63.687)"></path>
    </g>
</svg>