<svg xmlns:xlink="http://www.w3.org/1999/xlink" class="ml-4" width="41" height="41" viewBox="0 0 41 41" fill="none" xmlns="http://www.w3.org/2000/svg">
              <circle opacity="0.15" cx="21.4155" cy="21.5525" r="13.8275" transform="rotate(-36.651 21.4155 21.5525)" fill="#E81C4D"></circle>
              <path fill-rule="evenodd" clip-rule="evenodd" d="M19.0432 3.4589C16.1689 1.90568 14.3052 0.973391 12.3791 0.973389C10.4529 0.973389 8.58925 1.90568 5.71494 3.4589L5.66333 3.48679C4.24222 4.25471 3.11182 4.86554 2.34149 5.38588C1.95135 5.64941 1.59935 5.92484 1.3381 6.22484C1.07383 6.5283 0.836426 6.93396 0.836426 7.43725V14.8245C0.836426 15.3345 1.24985 15.7479 1.75984 15.7479C2.26982 15.7479 2.68325 15.3345 2.68325 14.8245V9.71094C3.19973 10.0359 3.83998 10.3961 4.58945 10.8055C4.5299 11.5482 4.52998 12.5083 4.53007 13.7474L4.53008 13.901C4.53008 18.5181 5.90983 19.4415 12.3473 19.4415C18.3812 19.4415 20.228 18.5181 20.228 13.901C20.228 12.5893 20.228 11.5817 20.1622 10.809C21.0898 10.3024 21.8505 9.87105 22.4166 9.48863C22.8067 9.2251 23.1587 8.94967 23.42 8.64967C23.6843 8.3462 23.9217 7.94054 23.9217 7.43725C23.9217 6.93396 23.6843 6.5283 23.42 6.22483C23.1587 5.92484 22.8067 5.64941 22.4166 5.38588C21.6463 4.86555 20.5159 4.25471 19.0948 3.4868L19.0432 3.4589ZM18.3645 11.7804C15.8668 13.1137 14.1493 13.9011 12.3791 13.9011C10.6081 13.9011 8.89004 13.113 6.39073 11.7789C6.37715 12.3309 6.3769 13.0206 6.3769 13.901C6.3769 16.1773 6.75931 16.6617 7.08659 16.8917C7.33186 17.0641 7.7906 17.2616 8.69009 17.3996C9.58312 17.5366 10.7639 17.5947 12.3473 17.5947C13.8247 17.5947 14.9599 17.537 15.8408 17.4001C16.726 17.2626 17.2299 17.0628 17.5283 16.8645C17.9408 16.5904 18.3812 16.0445 18.3812 13.901C18.3812 13.0204 18.3798 12.331 18.3645 11.7804ZM3.37523 6.91628C3.03344 7.14715 2.83624 7.3168 2.73122 7.43725C2.83624 7.55771 3.03344 7.72736 3.37523 7.95823C4.0603 8.42098 5.10889 8.9889 6.59293 9.79084C9.57742 11.4036 11.0095 12.0543 12.3791 12.0543C13.7486 12.0543 15.1807 11.4036 18.1652 9.79085C19.6492 8.9889 20.6978 8.42098 21.3829 7.95823C21.7246 7.72736 21.9219 7.55771 22.0269 7.43725C21.9219 7.31679 21.7247 7.14714 21.3829 6.91627C20.6978 6.45352 19.6492 5.8856 18.1652 5.08366C15.1807 3.47091 13.7486 2.82021 12.3791 2.82021C11.0095 2.82021 9.57742 3.4709 6.59293 5.08366C5.1089 5.88561 4.06031 6.45353 3.37523 6.91628ZM22.0893 7.52173L22.0881 7.51925C22.089 7.52091 22.0893 7.52173 22.0893 7.52173ZM22.0881 7.35525L22.0893 7.35278C22.0893 7.35277 22.089 7.35359 22.0881 7.35525ZM2.66996 7.35526C2.66909 7.35359 2.66874 7.35277 2.66879 7.35278L2.66996 7.35526Z" fill="#E81C4D"></path>
            </svg>