<svg xmlns:xlink="http://www.w3.org/1999/xlink" width="22" height="23" viewBox="0 0 22 23" fill="none" xmlns="http://www.w3.org/2000/svg">
                                                            <circle opacity="0.15" cx="12.8062" cy="13.2944" r="9.19385" fill="#E81C4D"></circle>
                                                            <path d="M0.785 3.66683C0.785 4.40379 0.825512 4.94242 0.914603 5.34329C1.00171 5.73525 1.12449 5.94578 1.2561 6.0774C1.38771 6.20901 1.59824 6.33178 1.9902 6.41889C2.39108 6.50798 2.92971 6.5485 3.66667 6.5485C4.40363 6.5485 4.94226 6.50798 5.34313 6.41889C5.73509 6.33178 5.94562 6.20901 6.07723 6.0774C6.20885 5.94578 6.33162 5.73525 6.41873 5.34329C6.50782 4.94242 6.54833 4.40379 6.54833 3.66683C6.54833 2.92987 6.50782 2.39124 6.41873 1.99037C6.33162 1.59841 6.20885 1.38788 6.07723 1.25626C5.94562 1.12465 5.73509 1.00188 5.34313 0.914766C4.94226 0.825675 4.40363 0.785163 3.66667 0.785163C2.92971 0.785163 2.39108 0.825675 1.9902 0.914766C1.59824 1.00188 1.38771 1.12465 1.2561 1.25626C1.12449 1.38788 1.00171 1.59841 0.914603 1.99037C0.825512 2.39124 0.785 2.92987 0.785 3.66683Z" stroke="#E81C4D" stroke-width="1.57px" stroke-linecap="round" stroke-linejoin="round" fill="none"></path>
                                                            <path d="M0.785 12.3333C0.785 13.0703 0.825512 13.6089 0.914603 14.0098C1.00171 14.4018 1.12449 14.6123 1.2561 14.7439C1.38771 14.8755 1.59824 14.9983 1.9902 15.0854C2.39108 15.1745 2.92971 15.215 3.66667 15.215C4.40363 15.215 4.94226 15.1745 5.34313 15.0854C5.73509 14.9983 5.94562 14.8755 6.07723 14.7439C6.20885 14.6123 6.33162 14.4018 6.41873 14.0098C6.50782 13.6089 6.54833 13.0703 6.54833 12.3333C6.54833 11.5964 6.50782 11.0577 6.41873 10.6569C6.33162 10.2649 6.20885 10.0544 6.07723 9.92277C5.94562 9.79115 5.73509 9.66838 5.34313 9.58127C4.94226 9.49218 4.40363 9.45167 3.66667 9.45167C2.92971 9.45167 2.39108 9.49218 1.9902 9.58127C1.59824 9.66838 1.38771 9.79115 1.2561 9.92277C1.12449 10.0544 1.00171 10.2649 0.914603 10.6569C0.825512 11.0577 0.785 11.5964 0.785 12.3333Z" stroke="#E81C4D" stroke-width="1.57px" stroke-linecap="round" stroke-linejoin="round" fill="none"></path>
                                                            <path d="M9.45163 12.3333C9.45163 13.0703 9.49214 13.6089 9.58123 14.0098C9.66834 14.4018 9.79111 14.6123 9.92273 14.7439C10.0543 14.8755 10.2649 14.9983 10.6568 15.0854C11.0577 15.1745 11.5963 15.215 12.3333 15.215C13.0702 15.215 13.6089 15.1745 14.0098 15.0854C14.4017 14.9983 14.6122 14.8755 14.7439 14.7439C14.8755 14.6123 14.9982 14.4018 15.0854 14.0098C15.1744 13.6089 15.215 13.0703 15.215 12.3333C15.215 11.5964 15.1744 11.0577 15.0854 10.6569C14.9982 10.2649 14.8755 10.0544 14.7439 9.92277C14.6122 9.79115 14.4017 9.66838 14.0098 9.58127C13.6089 9.49218 13.0702 9.45167 12.3333 9.45167C11.5963 9.45167 11.0577 9.49218 10.6568 9.58127C10.2649 9.66838 10.0543 9.79115 9.92273 9.92277C9.79111 10.0544 9.66834 10.2649 9.58123 10.6569C9.49214 11.0577 9.45163 11.5964 9.45163 12.3333Z" stroke="#E81C4D" stroke-width="1.57px" stroke-linecap="round" stroke-linejoin="round" fill="none"></path>
                                                            <path d="M12.3333 1.3335V3.66683M12.3333 6.00016V3.66683M12.3333 3.66683H14.6667H10" stroke="#E81C4D" stroke-width="1.57px" stroke-linecap="round" stroke-linejoin="round" fill="none"></path>
                                                        </svg>