<svg xmlns:xlink="http://www.w3.org/1999/xlink" width="16" height="11" viewBox="0 0 16 11" fill="none" xmlns="http://www.w3.org/2000/svg" class="mr-2">
    <path fill="#3B82F6" opacity="0.4" d="M11.1898 4.38459L14.3778 4.10265C15.0932 4.10265 15.6733 4.68836 15.6733 5.41077C15.6733 6.13318 15.0932 6.71889 14.3778 6.71889L11.1898 6.43695C10.6285 6.43695 10.1735 5.97749 10.1735 5.41077C10.1735 4.84309 10.6285 4.38459 11.1898 4.38459"></path>
    <path fill="#3B82F6" d="M0.484342 4.43642C0.534169 4.38611 0.720315 4.17347 0.895179 3.9969C1.91522 2.89098 4.57861 1.08258 5.97189 0.529142C6.18342 0.440858 6.71835 0.252899 7.00509 0.239609C7.27867 0.239609 7.54003 0.303211 7.78916 0.428517C8.10034 0.604136 8.34854 0.881329 8.4858 1.20788C8.57323 1.43382 8.71049 2.11256 8.71049 2.1249C8.84681 2.86629 8.92108 4.07189 8.92108 5.4047C8.92108 6.67295 8.84681 7.82918 8.73493 8.58292C8.72271 8.59621 8.58545 9.43823 8.43597 9.72681C8.16239 10.2546 7.62746 10.5812 7.05492 10.5812H7.00509C6.63186 10.5688 5.84779 10.2413 5.84779 10.2299C4.52879 9.6765 1.92838 7.95544 0.882957 6.81154C0.882957 6.81154 0.587756 6.51726 0.459899 6.33405C0.260591 6.07015 0.160937 5.74359 0.160937 5.41704C0.160937 5.05251 0.272812 4.71361 0.484342 4.43642"></path>
</svg>