<svg xmlns:xlink="http://www.w3.org/1999/xlink" class="mr-2" width="14" height="10" viewBox="0 0 14 10" fill="none" xmlns="http://www.w3.org/2000/svg">
                                <path class="fill-current text-white transition duration-200" opacity="0.4" d="M9.57831 4.47732L12.273 4.23901C12.8777 4.23901 13.368 4.73409 13.368 5.3447C13.368 5.95532 12.8777 6.4504 12.273 6.4504L9.57831 6.21209C9.10391 6.21209 8.7193 5.82373 8.7193 5.3447C8.7193 4.86488 9.10391 4.47732 9.57831 4.47732" fill="#FFFFFF"></path>
                                <path class="fill-current text-white transition duration-200" d="M0.529516 4.52111C0.571632 4.47859 0.728973 4.29885 0.876777 4.14961C1.73897 3.21483 3.9902 1.68628 5.16787 1.21848C5.34666 1.14386 5.79882 0.984988 6.04119 0.973755C6.27243 0.973755 6.49334 1.02751 6.70392 1.13343C6.96695 1.28187 7.17674 1.51617 7.29275 1.79219C7.36666 1.98316 7.48267 2.55687 7.48267 2.5673C7.5979 3.19396 7.66068 4.213 7.66068 5.33955C7.66068 6.41154 7.5979 7.38885 7.50334 8.02595C7.493 8.03718 7.37699 8.7489 7.25064 8.99282C7.0194 9.43895 6.56724 9.71497 6.0833 9.71497H6.04119C5.72571 9.70454 5.06298 9.42772 5.06298 9.41809C3.94809 8.9503 1.75009 7.49557 0.866446 6.52869C0.866446 6.52869 0.616927 6.27995 0.508855 6.12509C0.34039 5.90202 0.256158 5.626 0.256158 5.34998C0.256158 5.04186 0.350721 4.75541 0.529516 4.52111" fill="#FFFFFF"></path>
                            </svg>