<svg xmlns:xlink="http://www.w3.org/1999/xlink" class="dark:text-white text-gray-800  " width="16" height="22" viewBox="0 0 16 22" fill="none" xmlns="http://www.w3.org/2000/svg">
    <path d="M1 11C1 13.0721 1.6662 15.0155 3.5 16.5C4.93978 17.6655 6.5154 18 8 18M8 18L8 21L11 21L5 21M8 18C9.62679 18 11.0602 17.6655 12.5 16.5C14.3338 15.0155 15 12.9833 15 11" stroke="#475466" stroke-width="1.5px" stroke-linecap="round" stroke-linejoin="round" fill="none"></path>
    <path d="M8 0.75C7.00844 0.75 6.29025 0.999355 5.75424 1.37958C5.21259 1.76381 4.80375 2.31973 4.49962 3.0149C3.87961 4.43207 3.75 6.2944 3.75 8C3.75 9.7056 3.87961 11.5679 4.49962 12.9851C4.80375 13.6803 5.21258 14.2362 5.75424 14.6204C6.29025 15.0006 7.00844 15.25 8 15.25C8.99156 15.25 9.70974 15.0006 10.2458 14.6204C10.7874 14.2362 11.1962 13.6803 11.5004 12.9851C12.1204 11.5679 12.25 9.7056 12.25 8C12.25 6.2944 12.1204 4.43207 11.5004 3.0149C11.1962 2.31973 10.7874 1.76381 10.2458 1.37958C9.70974 0.999355 8.99156 0.75 8 0.75Z" stroke="#475466" stroke-width="1.5px" stroke-linecap="round" stroke-linejoin="round" fill="none"></path>
</svg>