<svg xmlns:xlink="http://www.w3.org/1999/xlink" class="text-dark-550 dark:text-white" width="23" height="16" viewBox="0 0 23 16" fill="none" xmlns="http://www.w3.org/2000/svg">
                                <path opacity="0.4" d="M7.12872 6.34863L2.5608 5.94466C1.53567 5.94466 0.704529 6.7839 0.704529 7.81901C0.704529 8.85412 1.53567 9.69336 2.5608 9.69336L7.12872 9.28938C7.93292 9.28938 8.58491 8.63105 8.58491 7.81901C8.58491 7.00561 7.93292 6.34863 7.12872 6.34863" fill="#64748B"></path>
                                <path d="M22.4681 6.42292C22.3967 6.35083 22.13 6.04614 21.8795 5.79314C20.4179 4.20852 16.6016 1.61734 14.6053 0.824345C14.3022 0.697847 13.5357 0.428528 13.1248 0.409485C12.7328 0.409485 12.3583 0.500618 12.0014 0.680164C11.5555 0.931801 11.1999 1.32898 11.0032 1.79689C10.8779 2.12061 10.6812 3.09315 10.6812 3.11084C10.4859 4.17315 10.3795 5.9006 10.3795 7.81032C10.3795 9.62754 10.4859 11.2843 10.6462 12.3643C10.6637 12.3833 10.8604 13.5898 11.0746 14.0033C11.4666 14.7596 12.2331 15.2275 13.0534 15.2275H13.1248C13.6596 15.2098 14.7831 14.7405 14.7831 14.7242C16.673 13.9312 20.399 11.4652 21.897 9.82613C21.897 9.82613 22.3199 9.40447 22.5031 9.14195C22.7887 8.76381 22.9315 8.29591 22.9315 7.828C22.9315 7.30568 22.7712 6.82009 22.4681 6.42292" fill="#64748B"></path>
                            </svg>