<svg xmlns:xlink="http://www.w3.org/1999/xlink" xmlns="http://www.w3.org/2000/svg" viewBox="0 0 1280 1280" width="1280" height="1280" preserveAspectRatio="xMidYMid meet" style="width: 100%; height: 100%; transform: translate3d(0px, 0px, 0px); content-visibility: visible;"><defs><clipPath id="__lottie_element_2"><rect width="1280" height="1280" x="0" y="0"></rect></clipPath><image xlink:href="animate/images/img_0.png"></image><image xlink:href="animate/images/img_1.png"></image><image xlink:href="animate/images/img_2.png"></image><image xlink:href="animate/images/img_3.png"></image><image xlink:href="animate/images/img_4.png"></image><image xlink:href="animate/images/img_5.png"></image><image xlink:href="animate/images/img_6.png"></image><image xlink:href="animate/images/img_7.png"></image><image xlink:href="animate/images/img_8.png"></image><image xlink:href="animate/images/img_9.png"></image><image xlink:href="animate/images/img_10.png"></image><image xlink:href="animate/images/img_11.png"></image><image xlink:href="animate/images/img_12.png"></image><image xlink:href="animate/images/img_13.png"></image><image xlink:href="animate/images/img_14.png"></image><image xlink:href="animate/images/img_15.png"></image><image xlink:href="animate/images/img_16.png"></image><image xlink:href="animate/images/img_17.png"></image><image xlink:href="animate/images/img_18.png"></image><image xlink:href="animate/images/img_19.png"></image><image xlink:href="animate/images/img_20.png"></image><image xlink:href="animate/images/img_21.png"></image><clipPath id="__lottie_element_16"><path d="M0,0 L1280,0 L1280,1280 L0,1280z"></path></clipPath><filter id="__lottie_element_24" x="-100%" y="-100%" width="300%" height="300%"><feGaussianBlur stdDeviation="1.7999999999999998 1.7999999999999998" edgeMode="duplicate"></feGaussianBlur></filter><linearGradient id="__lottie_element_25" spreadMethod="pad" gradientUnits="userSpaceOnUse" x1="-440" y1="460" x2="-56" y2="128"><stop offset="0%" stop-color="rgb(255,255,255)"></stop><stop offset="95%" stop-color="rgb(128,128,128)"></stop><stop offset="100%" stop-color="rgb(0,0,0)"></stop></linearGradient><mask id="__lottie_element_27"><path fill="url(#__lottie_element_26)" d=" M-148,-300 C-148,-300 -485.375,276.875 -485.375,276.875 C-485.375,276.875 -396,453 -396,453 C-396,453 328,452 328,452 C328,452 -148,-300 -148,-300z"></path></mask><linearGradient id="__lottie_element_26" spreadMethod="pad" gradientUnits="userSpaceOnUse" x1="-440" y1="460" x2="-56" y2="128"><stop stop-color="rgb(255,255,255)" offset="0%" stop-opacity="1"></stop><stop stop-color="rgb(255,255,255)" offset="50%" stop-opacity="0.5"></stop><stop stop-color="rgb(255,255,255)" offset="100%" stop-opacity="0"></stop></linearGradient><path d="" fill-opacity="1"></path><mask id="__lottie_element_37" mask-type="alpha"><g clip-path="url(#__lottie_element_38)" style="display: block;" transform="matrix(1,0,0,1,0,0)" opacity="1"><rect width="1280" height="1280" fill="#5efff9"></rect></g></mask><clipPath id="__lottie_element_38"><path fill="#ffffff" clip-rule="nonzero" d=" M589.25,515.75 C580.8720092773438,514.8829956054688 561.25,572.5139770507812 561.25,579.625 C561.25,586.7360229492188 632.5,581.5 644.25,583.5 C651.4359741210938,584.7230224609375 656.25,578.25 654.75,564.625 C653.9719848632812,557.5570068359375 647.25,521.75 589.25,515.75" fill-opacity="1"></path></clipPath><clipPath id="__lottie_element_77"><path d="M0,0 L1280,0 L1280,1280 L0,1280z"></path></clipPath><linearGradient id="__lottie_element_25" spreadMethod="pad" gradientUnits="userSpaceOnUse" x1="-440" y1="460" x2="-56" y2="128"><stop offset="0%" stop-color="rgb(255,255,255)"></stop><stop offset="95%" stop-color="rgb(128,128,128)"></stop><stop offset="100%" stop-color="rgb(0,0,0)"></stop></linearGradient></defs><g clip-path="url(#__lottie_element_2)"><g style="display: block;" transform="matrix(0,0,0,0,402.0580139160156,292.42999267578125)" opacity="1"><g opacity="1" transform="matrix(1,0,0,1,58.17499923706055,43.01100158691406)"><path fill="#DCDFEB" fill-opacity="1" d=" M-36.97700119018555,42.7599983215332 C-36.97700119018555,42.7599983215332 36.979000091552734,42.7599983215332 36.979000091552734,42.7599983215332 C48.5,42.7599983215332 57.92599868774414,33.334999084472656 57.92599868774414,21.81399917602539 C57.92599868774414,21.81399917602539 57.92599868774414,-21.812000274658203 57.92599868774414,-21.812000274658203 C57.92599868774414,-33.33300018310547 48.5,-42.7599983215332 36.979000091552734,-42.7599983215332 C36.979000091552734,-42.7599983215332 -36.97700119018555,-42.7599983215332 -36.97700119018555,-42.7599983215332 C-48.49800109863281,-42.7599983215332 -57.92599868774414,-33.33300018310547 -57.92599868774414,-21.812000274658203 C-57.92599868774414,-21.812000274658203 -57.92599868774414,21.81399917602539 -57.92599868774414,21.81399917602539 C-57.92599868774414,33.334999084472656 -48.49800109863281,42.7599983215332 -36.97700119018555,42.7599983215332z"></path></g><g opacity="1" transform="matrix(1,0,0,1,11.484000205993652,88.0780029296875)"><path fill="#DCDFEB" fill-opacity="1" d=" M10.727999687194824,-0.24400000274181366 C10.727999687194824,-0.24400000274181366 -10.239999771118164,21.211999893188477 -10.239999771118164,21.211999893188477 C-10.239999771118164,21.211999893188477 -10.727999687194824,-21.211999893188477 -10.727999687194824,-21.211999893188477 C-10.727999687194824,-21.211999893188477 10.727999687194824,-0.24400000274181366 10.727999687194824,-0.24400000274181366z"></path></g></g><g style="display: block;" transform="matrix(0,0,0,0,353.5,400.0790100097656)" opacity="1"><g opacity="1" transform="matrix(1,0,0,1,58.17499923706055,43.01100158691406)"><path fill="#FDA821" fill-opacity="1" d=" M36.97800064086914,42.7599983215332 C36.97800064086914,42.7599983215332 -36.97800064086914,42.7599983215332 -36.97800064086914,42.7599983215332 C-48.499000549316406,42.7599983215332 -57.92499923706055,33.334999084472656 -57.92499923706055,21.81399917602539 C-57.92499923706055,21.81399917602539 -57.92499923706055,-21.812999725341797 -57.92499923706055,-21.812999725341797 C-57.92499923706055,-33.334999084472656 -48.499000549316406,-42.7599983215332 -36.97800064086914,-42.7599983215332 C-36.97800064086914,-42.7599983215332 36.97800064086914,-42.7599983215332 36.97800064086914,-42.7599983215332 C48.499000549316406,-42.7599983215332 57.92499923706055,-33.334999084472656 57.92499923706055,-21.812999725341797 C57.92499923706055,-21.812999725341797 57.92499923706055,21.81399917602539 57.92499923706055,21.81399917602539 C57.92499923706055,33.334999084472656 48.499000549316406,42.7599983215332 36.97800064086914,42.7599983215332z"></path></g><g opacity="1" transform="matrix(1,0,0,1,109.5999984741211,79.27100372314453)"><path fill="#FDA821" fill-opacity="1" d=" M-12,3 C-12,3 12,21 12,21 C12,21 6,-21 6,-21 C6,-21 -12,3 -12,3z"></path></g></g><g style="display: block;" transform="matrix(0.8653360605239868,0.5011920928955078,-0.5011920928955078,0.8653360605239868,1041.555419921875,310.93890380859375)" opacity="1"><image width="38px" height="38px" preserveAspectRatio="xMidYMid slice" xlink:href="animate/images/img_21.png"></image></g><g style="display: block;" transform="matrix(0.8653360605239868,0.5011920928955078,-0.5011920928955078,0.8653360605239868,1039.988525390625,389.3642272949219)" opacity="1"><image width="32px" height="32px" preserveAspectRatio="xMidYMid slice" xlink:href="animate/images/img_20.png"></image></g><g style="display: block;" transform="matrix(0.8653360605239868,0.5011920928955078,-0.5011920928955078,0.8653360605239868,217.8226318359375,571.627197265625)" opacity="1"><image width="29px" height="29px" preserveAspectRatio="xMidYMid slice" xlink:href="animate/images/img_19.png"></image></g><g style="display: block;" transform="matrix(0.8653360605239868,0.5011920928955078,-0.5011920928955078,0.8653360605239868,240.62200927734375,596.7948608398438)" opacity="1"><image width="41px" height="41px" preserveAspectRatio="xMidYMid slice" xlink:href="animate/images/img_18.png"></image></g><g clip-path="url(#__lottie_element_16)" style="display: block;" transform="matrix(1,0,0,1,0,0)" opacity="1"><g style="display: block;" transform="matrix(1,0,0,1,341.9759826660156,648.5709838867188)" opacity="1"><image width="698px" height="457px" preserveAspectRatio="xMidYMid slice" xlink:href="animate/images/img_17.png"></image></g><g style="display: block;" transform="matrix(1,0,0,1,627,639)" opacity="1"><g opacity="1" transform="matrix(1,0,0,1,273.25,439.75)"><path fill="#39444E" fill-opacity="1" d=" M65.75,-18.25 C65.75,-18.25 -47.75,-19.25 -47.75,-19.25 C-47.75,-19.25 -45.75,19.25 -45.75,19.25 C-45.75,19.25 65.75,20.25 65.75,20.25 C65.75,20.25 65.75,-18.25 65.75,-18.25z"></path></g></g><g style="display: block;" transform="matrix(1,0,0,1,615.9249877929688,471.8389892578125)" opacity="1"><image width="122px" height="234px" preserveAspectRatio="xMidYMid slice" xlink:href="animate/images/img_16.png"></image></g><g style="display: block;" transform="matrix(1,0,0,1,615.926025390625,566.8389892578125)" opacity="1"><g opacity="1" transform="matrix(1,0,0,1,52.25,54.25)"><path fill="rgb(0,0,0)" fill-opacity="1" d=" M51,-54 C51,-54 52,49 -52,54 C-52,54 -52,23 -52,23 C-52,23 40,2 51,-54z"></path></g></g><g style="display: block;" transform="matrix(1,0,0,1,577.926025390625,640.8389892578125)" opacity="1"><image width="205px" height="92px" preserveAspectRatio="xMidYMid slice" xlink:href="animate/images/img_15.png"></image></g><g style="display: block;" transform="matrix(1,0,0,1,469.926025390625,297.3390197753906)" opacity="1"><image width="313px" height="368px" preserveAspectRatio="xMidYMid slice" xlink:href="animate/images/img_14.png"></image></g><g clip-path="url(#__lottie_element_77)" style="display: block;" transform="matrix(1,0,0,1,0,0)" opacity="1"><g style="display: block;" transform="matrix(1,0,0,1,589.490966796875,980.4029541015625)" opacity="1"><image width="41px" height="35px" preserveAspectRatio="xMidYMid slice" xlink:href="animate/images/img_13.png"></image></g><g style="display: block;" transform="matrix(1,0,0,1,666.8759765625,941.0789794921875)" opacity="1"><image width="380px" height="182px" preserveAspectRatio="xMidYMid slice" xlink:href="animate/images/img_12.png"></image></g><g style="display: block;" transform="matrix(1,0,0,1,602.2649536132812,983.0269775390625)" opacity="1"><image width="136px" height="97px" preserveAspectRatio="xMidYMid slice" xlink:href="animate/images/img_11.png"></image></g><g style="display: block;" transform="matrix(1,0,0,1,546.9669799804688,993.0269775390625)" opacity="1"><image width="91px" height="65px" preserveAspectRatio="xMidYMid slice" xlink:href="animate/images/img_10.png"></image></g><g style="display: block;" transform="matrix(0.9994325041770935,-0.033685047179460526,0.033685047179460526,0.9994325041770935,576.6658935546875,999.6578369140625)" opacity="1"><image width="60px" height="100px" preserveAspectRatio="xMidYMid slice" xlink:href="animate/images/img_9.png"></image></g><g style="display: block;" transform="matrix(0.9958037734031677,-0.0915142372250557,0.0915142372250557,0.9958037734031677,590.215576171875,1012.1401977539062)" opacity="1"><image width="58px" height="96px" preserveAspectRatio="xMidYMid slice" xlink:href="animate/images/img_8.png"></image></g><g style="display: block;" transform="matrix(0.9613256454467773,-0.2754141390323639,0.2754141390323639,0.9613256454467773,600.787109375,1023.760498046875)" opacity="1"><image width="66px" height="91px" preserveAspectRatio="xMidYMid slice" xlink:href="animate/images/img_7.png"></image></g></g><g style="display: none;" transform="matrix(0.9348851442337036,0.3549503684043884,-0.3549503684043884,0.9348851442337036,633.121826171875,551.8887939453125)" opacity="1"><image width="32px" height="33px" preserveAspectRatio="xMidYMid slice" xlink:href="animate/images/img_6.png"></image></g><g style="display: none;" transform="matrix(0.9967504143714905,-0.08055198937654495,0.08055198937654495,0.9967504143714905,610.5975341796875,566.460693359375)" opacity="1"><g opacity="1" transform="matrix(1,0,0,1,16,16.5)"><path stroke-linecap="round" stroke-linejoin="round" fill-opacity="0" stroke="#000000" stroke-opacity="1" stroke-width="10px" d=" M-11,2.5 C-11,2.5 4,11.5 11,-11.5"></path></g></g><g style="display: block;" transform="matrix(1,0,0,1,614.176025390625,563.0889892578125)" opacity="1"><image width="32px" height="33px" preserveAspectRatio="xMidYMid slice" xlink:href="animate/images/img_6.png"></image></g><g style="display: none;" transform="matrix(1.4342576265335083,0.6385726928710938,-0.6385726928710938,1.4342576265335083,641.399658203125,552.8507690429688)" opacity="1"><g opacity="1" transform="matrix(1,0,0,1,7.363999843597412,9.347999572753906)"><path fill="rgb(0,0,0)" fill-opacity="1" d=" M5.736000061035156,-1.7619999647140503 C7.113999843597412,2.7249999046325684 5.664000034332275,7.1519999504089355 2.496999979019165,8.125 C-0.6710000038146973,9.097999572753906 -4.355999946594238,6.25 -5.735000133514404,1.7619999647140503 C-7.113999843597412,-2.7249999046325684 -5.663000106811523,-7.1519999504089355 -2.496000051498413,-8.125 C0.671999990940094,-9.097999572753906 4.35699987411499,-6.249000072479248 5.736000061035156,-1.7619999647140503z"></path></g></g><g style="display: block;" transform="matrix(1,0,0,1,543.4180297851562,490.7790222167969)" opacity="1"><g opacity="1" transform="matrix(1,0,0,1,14.75,11.503999710083008)"><path fill="#F49B82" fill-opacity="1" d=" M14.5,-3.246000051498413 C14.5,4.76200008392334 8.008000373840332,11.253999710083008 0,11.253999710083008 C-8.008000373840332,11.253999710083008 -14.5,4.76200008392334 -14.5,-3.246000051498413 C-14.5,-11.253999710083008 -8.118000030517578,-18.301000595092773 -0.10999999940395355,-18.301000595092773 C7.8979997634887695,-18.301000595092773 14.5,-11.253999710083008 14.5,-3.246000051498413z"></path></g></g><g style="display: block;" transform="matrix(1,0,0,1,650.4190063476562,488.7790222167969)" opacity="1"><g opacity="1" transform="matrix(1,0,0,1,14.75,11.503999710083008)"><path fill="#F49B82" fill-opacity="1" d=" M14.5,-3.246000051498413 C14.5,4.76200008392334 8.008000373840332,11.253999710083008 0,11.253999710083008 C-8.008999824523926,11.253999710083008 -14.5,4.76200008392334 -14.5,-3.246000051498413 C-14.5,-11.253999710083008 -7.625,-17.981000900268555 0.3840000033378601,-17.981000900268555 C8.392000198364258,-17.981000900268555 14.5,-11.253999710083008 14.5,-3.246000051498413z"></path></g></g><g style="display: block;" transform="matrix(1,0,0,1,633.926025390625,481.8390197753906)" opacity="1"><image width="68px" height="14px" preserveAspectRatio="xMidYMid slice" xlink:href="animate/images/img_5.png"></image></g><g style="display: block;" transform="matrix(1,0,0,1,531.0790405273438,482.177001953125)" opacity="1"><image width="62px" height="14px" preserveAspectRatio="xMidYMid slice" xlink:href="animate/images/img_4.png"></image></g><g style="display: block;" transform="matrix(1,0,0,1,552.2870483398438,503.22802734375)" opacity="1"><g opacity="1" transform="matrix(1,0,0,1,6.25,6.25)"><path fill="rgb(0,0,0)" fill-opacity="1" d=" M6,0 C6,3.312999963760376 3.313999891281128,6 0,6 C-3.312999963760376,6 -6,3.312999963760376 -6,0 C-6,-3.313999891281128 -3.312999963760376,-6 0,-6 C3.313999891281128,-6 6,-3.313999891281128 6,0z"></path></g><g opacity="1" transform="matrix(1,0,0,1,3.75,6.75)"><path fill="#FFFFFF" fill-opacity="1" d=" M1.5,0 C1.5,0.828000009059906 0.8289999961853027,1.5 0,1.5 C-0.828000009059906,1.5 -1.5,0.828000009059906 -1.5,0 C-1.5,-0.8289999961853027 -0.828000009059906,-1.5 0,-1.5 C0.8289999961853027,-1.5 1.5,-0.8289999961853027 1.5,0z"></path></g></g><g style="display: block;" transform="matrix(1,0,0,1,657.7640380859375,501.83203125)" opacity="1"><g opacity="1" transform="matrix(1,0,0,1,6.25,6.25)"><path fill="rgb(0,0,0)" fill-opacity="1" d=" M-6,0 C-6,-3.313999891281128 -3.313999891281128,-6 0,-6 C3.312999963760376,-6 6,-3.313999891281128 6,0 C6,3.312999963760376 3.312999963760376,6 0,6 C-3.313999891281128,6 -6,3.312999963760376 -6,0z"></path></g><g opacity="1" transform="matrix(1,0,0,1,4.75,5.75)"><path fill="#FFFFFF" fill-opacity="1" d=" M1.5,0 C1.5,0.828000009059906 0.828000009059906,1.5 0,1.5 C-0.8289999961853027,1.5 -1.5,0.828000009059906 -1.5,0 C-1.5,-0.8289999961853027 -0.8289999961853027,-1.5 0,-1.5 C0.828000009059906,-1.5 1.5,-0.8289999961853027 1.5,0z"></path></g></g><g style="display: block;" transform="matrix(1,0,0,1,272.46502685546875,709.4879760742188)" opacity="1"><image width="137px" height="400px" preserveAspectRatio="xMidYMid slice" xlink:href="animate/images/img_3.png"></image></g><g mask="url(#__lottie_element_37)" style="display: block;"><g transform="matrix(1,0,0,1,640,640)" opacity="1"><g opacity="1" transform="matrix(1,0,0,1,0,0)"><path stroke-linecap="butt" stroke-linejoin="miter" fill-opacity="0" stroke-miterlimit="4" stroke="#4B1F14" stroke-opacity="1" stroke-width="11px" d="M0 0"></path></g></g></g><g style="display: block;" transform="matrix(1,0,0,1,309.9250183105469,646.8389892578125)" opacity="1"><image width="96px" height="137px" preserveAspectRatio="xMidYMid slice" xlink:href="animate/images/img_2.png"></image></g><g style="display: block;" transform="matrix(1,0,0,1,293.9320373535156,678.5409545898438)" opacity="1"><image width="123px" height="80px" preserveAspectRatio="xMidYMid slice" xlink:href="animate/images/img_1.png"></image></g><g filter="url(#__lottie_element_24)" style="display: block;" transform="matrix(1,0,0,1,640,640)" opacity="0.9"><g opacity="1" transform="matrix(1,0,0,1,0,0)"><path fill="url(&quot;#__lottie_element_25&quot;)" mask="url(#__lottie_element_27)" fill-opacity="1" d="M0 0 M-148,-300 C-148,-300 -485.375,276.875 -485.375,276.875 C-485.375,276.875 -396,453 -396,453 C-396,453 328,452 328,452 C328,452 -148,-300 -148,-300z"></path></g></g><g style="display: block;" transform="matrix(1,0,0,1,146.11001586914062,898.2330322265625)" opacity="1"><image width="526px" height="213px" preserveAspectRatio="xMidYMid slice" xlink:href="animate/images/img_0.png"></image></g></g><g style="display: block;" fill="#545454" font-size="24" font-family="Arial Rounded MT Bold" font-style="normal" font-weight="400" aria-label="LEARN" transform="matrix(0,0,0,0,402.0580139160156,292.42999267578125)" opacity="1"><path stroke-linecap="butt" stroke-linejoin="round" stroke-miterlimit="4" d=" M-35.48,-32.69 C-35.81,-33.03 -36.23,-33.21 -36.75,-33.21 C-37.27,-33.21 -37.69,-33.03 -38,-32.68 C-38.32,-32.33 -38.48,-31.8 -38.48,-31.1 C-38.48,-31.1 -38.48,-17.87 -38.48,-17.87 C-38.48,-17.12 -38.31,-16.57 -37.98,-16.24 C-37.65,-15.9 -37.1,-15.74 -36.34,-15.74 C-36.34,-15.74 -27.94,-15.74 -27.94,-15.74 C-27.37,-15.74 -26.94,-15.87 -26.64,-16.13 C-26.34,-16.39 -26.19,-16.73 -26.19,-17.15 C-26.19,-17.57 -26.35,-17.91 -26.65,-18.18 C-26.95,-18.46 -27.38,-18.59 -27.94,-18.59 C-27.94,-18.59 -35,-18.59 -35,-18.59 C-35,-18.59 -35,-31.1 -35,-31.1 C-35,-31.81 -35.16,-32.34 -35.48,-32.69z M-11.47,-30.6 C-11.2,-30.85 -11.07,-31.17 -11.07,-31.58 C-11.07,-31.98 -11.2,-32.3 -11.47,-32.55 C-11.74,-32.79 -12.15,-32.91 -12.71,-32.91 C-12.71,-32.91 -21.9,-32.91 -21.9,-32.91 C-22.39,-32.91 -22.79,-32.84 -23.11,-32.7 C-23.43,-32.55 -23.66,-32.32 -23.81,-32.01 C-23.96,-31.69 -24.03,-31.28 -24.03,-30.78 C-24.03,-30.78 -24.03,-17.87 -24.03,-17.87 C-24.03,-17.12 -23.86,-16.57 -23.53,-16.24 C-23.2,-15.9 -22.65,-15.74 -21.9,-15.74 C-21.9,-15.74 -12.44,-15.74 -12.44,-15.74 C-11.89,-15.74 -11.48,-15.86 -11.2,-16.12 C-10.93,-16.37 -10.79,-16.7 -10.79,-17.11 C-10.79,-17.53 -10.93,-17.87 -11.2,-18.12 C-11.48,-18.37 -11.89,-18.5 -12.44,-18.5 C-12.44,-18.5 -20.55,-18.5 -20.55,-18.5 C-20.55,-18.5 -20.55,-23.39 -20.55,-23.39 C-20.55,-23.39 -13.33,-23.39 -13.33,-23.39 C-12.79,-23.39 -12.39,-23.51 -12.14,-23.76 C-11.88,-24 -11.75,-24.32 -11.75,-24.71 C-11.75,-25.1 -11.88,-25.42 -12.14,-25.66 C-12.4,-25.89 -12.8,-26.01 -13.33,-26.01 C-13.33,-26.01 -20.55,-26.01 -20.55,-26.01 C-20.55,-26.01 -20.55,-30.23 -20.55,-30.23 C-20.55,-30.23 -12.71,-30.23 -12.71,-30.23 C-12.15,-30.23 -11.74,-30.35 -11.47,-30.6z M3.24,-16.76 C3.4,-16.41 3.54,-16.16 3.67,-15.99 C3.8,-15.82 3.97,-15.69 4.16,-15.59 C4.36,-15.49 4.59,-15.44 4.87,-15.44 C5.33,-15.44 5.74,-15.61 6.07,-15.94 C6.4,-16.27 6.57,-16.64 6.57,-17.04 C6.57,-17.42 6.39,-18.03 6.04,-18.88 C6.04,-18.88 1.55,-29.96 1.55,-29.96 C1.34,-30.52 1.16,-30.96 1.03,-31.29 C0.89,-31.62 0.72,-31.93 0.52,-32.22 C0.33,-32.51 0.06,-32.75 -0.26,-32.93 C-0.59,-33.12 -0.99,-33.21 -1.47,-33.21 C-1.95,-33.21 -2.35,-33.12 -2.67,-32.93 C-3,-32.75 -3.26,-32.51 -3.46,-32.21 C-3.66,-31.91 -3.85,-31.54 -4.02,-31.09 C-4.2,-30.64 -4.35,-30.26 -4.47,-29.94 C-4.47,-29.94 -8.87,-18.78 -8.87,-18.78 C-9.05,-18.34 -9.18,-17.99 -9.26,-17.74 C-9.33,-17.49 -9.37,-17.25 -9.37,-17.01 C-9.37,-16.61 -9.2,-16.24 -8.87,-15.92 C-8.53,-15.6 -8.15,-15.44 -7.71,-15.44 C-7.19,-15.44 -6.82,-15.59 -6.59,-15.89 C-6.37,-16.19 -6.09,-16.77 -5.77,-17.63 C-5.77,-17.63 -4.95,-19.84 -4.95,-19.84 C-4.95,-19.84 2.03,-19.84 2.03,-19.84 C2.03,-19.84 2.85,-17.68 2.85,-17.68 C2.96,-17.41 3.09,-17.11 3.24,-16.76z M-1.5,-29.54 C-1.5,-29.54 1.09,-22.45 1.09,-22.45 C1.09,-22.45 -4.04,-22.45 -4.04,-22.45 C-4.04,-22.45 -1.5,-29.54 -1.5,-29.54z M15.21,-22.84 C15.62,-22.67 16.02,-22.37 16.41,-21.92 C16.81,-21.48 17.25,-20.83 17.75,-19.98 C17.75,-19.98 19.15,-17.66 19.15,-17.66 C19.48,-17.11 19.74,-16.7 19.93,-16.41 C20.12,-16.13 20.35,-15.9 20.61,-15.72 C20.88,-15.53 21.21,-15.44 21.6,-15.44 C21.92,-15.44 22.21,-15.51 22.46,-15.64 C22.71,-15.76 22.91,-15.94 23.06,-16.16 C23.2,-16.39 23.27,-16.61 23.27,-16.84 C23.27,-17.06 23.15,-17.46 22.9,-18.04 C22.66,-18.62 22.31,-19.27 21.87,-19.99 C21.43,-20.72 20.93,-21.4 20.37,-22.04 C19.8,-22.68 19.21,-23.16 18.6,-23.49 C20.07,-23.81 21.16,-24.36 21.88,-25.12 C22.61,-25.89 22.97,-26.91 22.97,-28.19 C22.97,-28.82 22.86,-29.41 22.65,-29.97 C22.43,-30.53 22.12,-31.02 21.7,-31.44 C21.29,-31.86 20.81,-32.18 20.27,-32.41 C19.83,-32.61 19.33,-32.75 18.77,-32.82 C18.22,-32.88 17.55,-32.91 16.77,-32.91 C16.77,-32.91 11.11,-32.91 11.11,-32.91 C10.36,-32.91 9.82,-32.75 9.48,-32.41 C9.14,-32.07 8.98,-31.53 8.98,-30.78 C8.98,-30.78 8.98,-17.56 8.98,-17.56 C8.98,-16.87 9.13,-16.34 9.43,-15.98 C9.74,-15.62 10.17,-15.44 10.72,-15.44 C11.24,-15.44 11.66,-15.61 11.98,-15.96 C12.3,-16.3 12.46,-16.84 12.46,-17.56 C12.46,-17.56 12.46,-23.08 12.46,-23.08 C12.46,-23.08 13.67,-23.08 13.67,-23.08 C14.29,-23.08 14.8,-23 15.21,-22.84z M18.07,-30.04 C18.5,-29.86 18.84,-29.59 19.08,-29.23 C19.32,-28.87 19.44,-28.45 19.44,-27.97 C19.44,-27.36 19.29,-26.88 18.99,-26.53 C18.69,-26.19 18.25,-25.94 17.68,-25.8 C17.11,-25.65 16.41,-25.58 15.57,-25.58 C15.57,-25.58 12.46,-25.58 12.46,-25.58 C12.46,-25.58 12.46,-30.3 12.46,-30.3 C12.46,-30.3 15.67,-30.3 15.67,-30.3 C16.86,-30.3 17.66,-30.22 18.07,-30.04z M30.13,-31.98 C29.95,-32.25 29.78,-32.47 29.61,-32.65 C29.45,-32.82 29.25,-32.95 29.03,-33.06 C28.81,-33.16 28.54,-33.21 28.23,-33.21 C27.83,-33.21 27.46,-33.1 27.11,-32.87 C26.77,-32.65 26.52,-32.36 26.37,-32.01 C26.25,-31.69 26.19,-31.25 26.19,-30.69 C26.19,-30.69 26.19,-17.43 26.19,-17.43 C26.19,-16.79 26.34,-16.29 26.63,-15.95 C26.93,-15.61 27.32,-15.44 27.82,-15.44 C28.29,-15.44 28.68,-15.61 28.99,-15.95 C29.29,-16.28 29.44,-16.78 29.44,-17.43 C29.44,-17.43 29.44,-27.5 29.44,-27.5 C29.44,-27.5 35.97,-17.49 35.97,-17.49 C36.16,-17.22 36.35,-16.95 36.53,-16.69 C36.72,-16.43 36.92,-16.2 37.14,-16 C37.36,-15.81 37.6,-15.67 37.85,-15.58 C38.1,-15.49 38.38,-15.44 38.69,-15.44 C39.94,-15.44 40.57,-16.2 40.57,-17.7 C40.57,-17.7 40.57,-31.22 40.57,-31.22 C40.57,-31.88 40.42,-32.38 40.13,-32.71 C39.84,-33.04 39.45,-33.21 38.95,-33.21 C38.46,-33.21 38.08,-33.04 37.79,-32.71 C37.51,-32.38 37.37,-31.88 37.37,-31.22 C37.37,-31.22 37.37,-21 37.37,-21 C37.37,-21 30.67,-31.12 30.67,-31.12 C30.49,-31.42 30.31,-31.7 30.13,-31.98z" style="display: inherit;" fill="#545454"></path></g><g style="display: block;" fill="#FFFFFF" font-size="26" font-family="Arial Rounded MT Bold" font-style="normal" font-weight="400" aria-label="CODE" transform="matrix(0,0,0,0,353.5,400.0790100097656)" opacity="1"><path stroke-linecap="butt" stroke-linejoin="round" stroke-miterlimit="4" d=" M-16.13,-21.3 C-16.45,-21.61 -16.84,-21.77 -17.28,-21.77 C-17.81,-21.77 -18.19,-21.62 -18.43,-21.31 C-18.66,-21 -18.86,-20.6 -19.02,-20.11 C-19.4,-19.07 -19.97,-18.28 -20.72,-17.74 C-21.47,-17.2 -22.38,-16.93 -23.47,-16.93 C-24.47,-16.93 -25.34,-17.17 -26.08,-17.64 C-26.83,-18.12 -27.4,-18.84 -27.81,-19.8 C-28.22,-20.76 -28.42,-21.96 -28.42,-23.41 C-28.42,-25.57 -27.96,-27.25 -27.04,-28.42 C-26.12,-29.6 -24.89,-30.19 -23.34,-30.19 C-22.37,-30.19 -21.55,-29.96 -20.88,-29.5 C-20.22,-29.04 -19.64,-28.36 -19.15,-27.43 C-18.85,-26.87 -18.59,-26.48 -18.34,-26.25 C-18.1,-26.02 -17.74,-25.91 -17.26,-25.91 C-16.83,-25.91 -16.46,-26.07 -16.15,-26.4 C-15.85,-26.73 -15.7,-27.12 -15.7,-27.55 C-15.7,-28.33 -16.01,-29.17 -16.64,-30.05 C-17.26,-30.94 -18.16,-31.68 -19.34,-32.28 C-20.52,-32.88 -21.86,-33.18 -23.37,-33.18 C-24.6,-33.18 -25.76,-32.96 -26.86,-32.52 C-27.95,-32.08 -28.9,-31.44 -29.71,-30.6 C-30.53,-29.76 -31.15,-28.74 -31.59,-27.56 C-32.02,-26.37 -32.24,-25.03 -32.24,-23.53 C-32.24,-22.61 -32.15,-21.74 -31.98,-20.92 C-31.81,-20.1 -31.55,-19.33 -31.2,-18.6 C-30.85,-17.88 -30.43,-17.23 -29.94,-16.64 C-29.39,-16 -28.79,-15.48 -28.13,-15.09 C-27.48,-14.69 -26.75,-14.4 -25.94,-14.22 C-25.14,-14.03 -24.25,-13.94 -23.26,-13.94 C-21.97,-13.94 -20.83,-14.14 -19.86,-14.56 C-18.89,-14.97 -18.09,-15.51 -17.46,-16.18 C-16.84,-16.84 -16.38,-17.52 -16.08,-18.21 C-15.79,-18.9 -15.65,-19.54 -15.65,-20.13 C-15.65,-20.6 -15.81,-20.99 -16.13,-21.3z M-8.01,-32.52 C-9.13,-32.07 -10.07,-31.43 -10.85,-30.59 C-11.63,-29.76 -12.23,-28.74 -12.64,-27.55 C-13.05,-26.35 -13.25,-25.04 -13.25,-23.61 C-13.25,-22.21 -13.05,-20.92 -12.66,-19.71 C-12.27,-18.51 -11.69,-17.48 -10.92,-16.63 C-10.15,-15.77 -9.18,-15.11 -8.03,-14.64 C-6.88,-14.17 -5.58,-13.94 -4.12,-13.94 C-2.66,-13.94 -1.36,-14.17 -0.23,-14.62 C0.91,-15.08 1.86,-15.74 2.64,-16.6 C3.42,-17.47 4.01,-18.49 4.4,-19.66 C4.78,-20.84 4.98,-22.15 4.98,-23.59 C4.98,-25.53 4.62,-27.23 3.91,-28.67 C3.2,-30.11 2.15,-31.23 0.77,-32.01 C-0.61,-32.79 -2.27,-33.18 -4.2,-33.18 C-5.62,-33.18 -6.89,-32.96 -8.01,-32.52z M0.44,-19.89 C-0.04,-18.88 -0.68,-18.14 -1.49,-17.66 C-2.3,-17.17 -3.18,-16.93 -4.15,-16.93 C-4.9,-16.93 -5.59,-17.07 -6.22,-17.35 C-6.85,-17.63 -7.41,-18.05 -7.9,-18.62 C-8.39,-19.18 -8.76,-19.89 -9.03,-20.74 C-9.3,-21.6 -9.43,-22.55 -9.43,-23.61 C-9.43,-24.66 -9.3,-25.61 -9.03,-26.45 C-8.76,-27.29 -8.4,-27.98 -7.94,-28.52 C-7.48,-29.07 -6.93,-29.48 -6.29,-29.76 C-5.65,-30.05 -4.95,-30.19 -4.2,-30.19 C-3.14,-30.19 -2.2,-29.93 -1.39,-29.42 C-0.57,-28.91 0.06,-28.15 0.5,-27.15 C0.94,-26.15 1.16,-24.97 1.16,-23.61 C1.16,-22.14 0.92,-20.9 0.44,-19.89z M8.65,-32.32 C8.28,-31.96 8.1,-31.37 8.1,-30.56 C8.1,-30.56 8.1,-16.91 8.1,-16.91 C8.1,-16.31 8.15,-15.82 8.26,-15.44 C8.36,-15.06 8.59,-14.77 8.94,-14.57 C9.28,-14.36 9.8,-14.25 10.49,-14.25 C10.49,-14.25 15.4,-14.25 15.4,-14.25 C16.25,-14.25 17.02,-14.31 17.7,-14.42 C18.38,-14.53 19.02,-14.72 19.61,-14.99 C20.21,-15.26 20.75,-15.62 21.25,-16.07 C21.89,-16.65 22.41,-17.32 22.81,-18.06 C23.22,-18.8 23.52,-19.63 23.71,-20.55 C23.91,-21.47 24.01,-22.49 24.01,-23.61 C24.01,-27 23.04,-29.52 21.1,-31.18 C20.35,-31.83 19.53,-32.27 18.61,-32.51 C17.7,-32.75 16.6,-32.87 15.32,-32.87 C15.32,-32.87 10.41,-32.87 10.41,-32.87 C9.6,-32.87 9.01,-32.68 8.65,-32.32z M14.36,-29.88 C15.51,-29.88 16.49,-29.76 17.3,-29.51 C18.12,-29.26 18.8,-28.68 19.35,-27.76 C19.91,-26.85 20.19,-25.47 20.19,-23.64 C20.19,-21.03 19.55,-19.19 18.29,-18.13 C18.01,-17.88 17.68,-17.69 17.3,-17.56 C16.92,-17.42 16.55,-17.34 16.2,-17.3 C15.84,-17.27 15.35,-17.25 14.73,-17.25 C14.73,-17.25 11.87,-17.25 11.87,-17.25 C11.87,-17.25 11.87,-29.88 11.87,-29.88 C11.87,-29.88 14.36,-29.88 14.36,-29.88z M40.79,-30.36 C41.08,-30.63 41.23,-30.98 41.23,-31.42 C41.23,-31.85 41.08,-32.2 40.79,-32.47 C40.5,-32.73 40.05,-32.87 39.45,-32.87 C39.45,-32.87 29.5,-32.87 29.5,-32.87 C28.97,-32.87 28.53,-32.79 28.19,-32.63 C27.84,-32.47 27.59,-32.22 27.43,-31.88 C27.27,-31.54 27.19,-31.1 27.19,-30.56 C27.19,-30.56 27.19,-16.57 27.19,-16.57 C27.19,-15.75 27.37,-15.16 27.73,-14.8 C28.09,-14.44 28.68,-14.25 29.5,-14.25 C29.5,-14.25 39.75,-14.25 39.75,-14.25 C40.34,-14.25 40.78,-14.39 41.08,-14.67 C41.38,-14.94 41.53,-15.3 41.53,-15.74 C41.53,-16.2 41.38,-16.56 41.08,-16.84 C40.78,-17.11 40.34,-17.25 39.75,-17.25 C39.75,-17.25 30.96,-17.25 30.96,-17.25 C30.96,-17.25 30.96,-22.54 30.96,-22.54 C30.96,-22.54 38.78,-22.54 38.78,-22.54 C39.36,-22.54 39.8,-22.68 40.07,-22.94 C40.35,-23.21 40.49,-23.56 40.49,-23.98 C40.49,-24.4 40.35,-24.74 40.07,-25 C39.79,-25.26 39.36,-25.39 38.78,-25.39 C38.78,-25.39 30.96,-25.39 30.96,-25.39 C30.96,-25.39 30.96,-29.96 30.96,-29.96 C30.96,-29.96 39.45,-29.96 39.45,-29.96 C40.05,-29.96 40.5,-30.09 40.79,-30.36z" style="display: inherit;" fill="#FFFFFF"></path></g></g></svg>