<svg xmlns:xlink="http://www.w3.org/1999/xlink" class="w-9 h-9 text-white" xmlns="http://www.w3.org/2000/svg" viewBox="0 0 40.68 15.64" width="40.68"  height="15.64" >
    <path d="M13.94,9.2c-.32,1.84-.62,3.58-.86,5.4h-.06c-.2-1.8-.5-3.5-.84-5.3l-1.3-6.68H7.96l-1.4,6.6c-.4,1.92-.78,3.7-1,5.42H5.5C5.28,13,4.98,11.1,4.66,9.26L3.48,2.62H.34L3.72,18H6.84l1.5-6.52c.38-1.62.66-3.16.92-4.9H9.3c.2,1.74.44,3.3.78,4.9L11.4,18h3.14L18.18,2.62H15.2Zm8.98,6.32V11.24h5.02V8.82H22.92V5.1h5.32V2.62H19.96V18h8.6V15.52Zm7.92,2.42a24.183,24.183,0,0,0,3.28.2c2.74,0,4.46-.5,5.5-1.44a4.228,4.228,0,0,0,1.4-3.16,3.793,3.793,0,0,0-3-3.76V9.7a3.517,3.517,0,0,0,2.46-3.32,3.4,3.4,0,0,0-1.5-2.9,7.1,7.1,0,0,0-4.24-.98,21.93,21.93,0,0,0-3.9.32ZM33.78,4.8a6.092,6.092,0,0,1,1.3-.1c1.32,0,2.46.5,2.46,2.02,0,1.26-1,2.16-2.68,2.16H33.78Zm1.1,6.24c1.52,0,3.04.64,3.04,2.42,0,1.74-1.36,2.46-2.96,2.46a6.136,6.136,0,0,1-1.18-.08v-4.8Z" transform="translate(-0.34 -2.5)" fill="#FFFFFF"></path>
</svg>