<svg xmlns:xlink="http://www.w3.org/1999/xlink" class="ml-4" width="41" height="40" viewBox="0 0 41 40" fill="none" xmlns="http://www.w3.org/2000/svg">
              <path d="M13.9609 6.54199C17.3785 6.92151 20.0785 9.61787 20.4617 13.0354" stroke="#51B6FF" stroke-width="1.38512px" stroke-linecap="round" stroke-linejoin="round" fill="none"></path>
              <path d="M13.9609 9.81372C15.5963 10.1314 16.8743 11.4103 17.1929 13.0457" stroke="#51B6FF" stroke-width="1.38512px" stroke-linecap="round" stroke-linejoin="round" fill="none"></path>
              <path fill-rule="evenodd" clip-rule="evenodd" d="M10.8938 15.7506C14.5773 19.4331 15.4129 15.1728 17.7582 17.5165C20.0193 19.777 21.3198 20.2299 18.4541 23.0939C18.0953 23.3822 15.8154 26.8517 7.80314 18.8415C-0.210096 10.8303 3.25728 8.54805 3.54574 8.18931C6.41738 5.31741 6.86344 6.62453 9.12447 8.88499C11.4688 11.2297 7.21038 12.0681 10.8938 15.7506Z" stroke="#51B6FF" stroke-width="1.38512px" stroke-linecap="round" stroke-linejoin="round" fill="none"></path>
              <circle opacity="0.15" cx="21.2863" cy="19.8875" r="13.8275" transform="rotate(-36.651 21.2863 19.8875)" fill="#51B6FF"></circle>
            </svg>